<?xml version="1.0" standalone="yes"?>
<svg xmlns="http://www.w3.org/2000/svg" width="2367" height="2051">
<path style="fill:#41b983; stroke:none;" d="M0 0L11.5725 22L34.1389 61L108.579 190L362.127 629L910.573 1579L1093.57 1896L1183 2051L1184 2051C1215.5 1999.53 1243.94 1946.07 1274.45 1894C1335.93 1789.06 1396.58 1683.62 1456.87 1578C1634.14 1267.46 1814.61 958.734 1993.28 649C2078.08 501.997 2161.99 354.385 2247.86 208C2275.51 160.861 2302.64 113.401 2329.85 66C2341.59 45.5587 2360.47 22.616 2367 0L2022 0L1930 0C1921.29 0 1901.79 -3.6709 1894.39 1.02783C1887.77 5.23169 1882.96 19.2793 1879.01 26C1866.15 47.8918 1853.85 70.108 1840.99 92C1793.44 172.965 1746.89 254.566 1700.15 336C1583.46 539.279 1466.23 742.278 1348.58 945C1311.29 1009.25 1274.13 1073.58 1237.15 1138C1219.74 1168.32 1197.49 1198.76 1184 1231C1163.87 1203.29 1148.77 1170.63 1131.58 1141C1094.09 1076.42 1057.06 1011.58 1019.58 947C900.748 742.257 783.251 536.742 664.424 332C618.247 252.436 572.601 172.564 526.424 93C513.682 71.0446 501.047 49.0227 488.421 27C484.395 19.9778 479.303 5.45935 472.471 1.02783C465.387 -3.56714 446.386 0 438 0L346 0L0 0z"/>
<path style="fill:#47b585; stroke:none;" d="M473 0L475 3L473 0z"/>
<path style="fill:#35495f; stroke:none;" d="M474 0C478.589 15.8983 490.976 31.7896 499.397 46C515.09 72.4828 530.123 99.3751 545.576 126C596.966 214.546 648.183 303.21 699.15 392C801.849 570.915 905.025 749.579 1008.58 928C1066.88 1028.46 1122.37 1130.94 1183 1230L1184 1230L1669.42 389L1822.42 124L1870.42 41L1893 0L1583 0L1494 0C1484.07 0 1466.4 -3.44995 1457.33 0.603516C1449.27 4.20483 1442.81 23.5516 1438.4 31C1421.33 59.7986 1405.26 89.1982 1388.2 118C1340.95 197.778 1295.29 278.575 1249.13 359C1234.95 383.698 1220.67 408.365 1206.39 433C1198.91 445.889 1189.1 458.977 1184 473C1158.04 433.635 1136.58 390.755 1112.86 350C1071.21 278.467 1029.38 206.979 988.502 135C970.269 102.894 951.663 70.9963 933.225 39C928.027 29.98 922.642 21.0504 917.502 12C915.529 8.52576 913.848 3.3418 910.391 1.02783C903.996 -3.25244 886.618 0 879 0L794 0L474 0z"/>
<path style="fill:#010101; stroke:none;" d="M911 0C916.483 14.9758 927.242 29.1456 935.15 43C952.135 72.7555 969.378 102.368 986.576 132C1027.72 202.889 1068.28 274.112 1109.42 345C1133.84 387.076 1162.42 428.933 1183 473L1184 473L1207.15 432L1254.58 350L1392.42 111L1433.42 40L1456 0L911 0z"/>
<path style="fill:#47b585; stroke:none;" d="M1893 0L1894 1L1893 0M1455 1L1456 2L1455 1M1892 2L1893 3L1892 2z"/>
<path style="fill:#010101; stroke:none;" d="M2366 2L2335.85 55L2268.85 171L2056.42 539L1440.58 1606L1272.58 1897L1216.58 1994L1184 2051L2367 2051L2367 595L2367 175L2367 54L2367 19L2366 2M0 3L0 2051L1183 2051C1173.2 2030.03 1159.74 2009.97 1148.01 1990C1128.91 1957.48 1110.36 1924.62 1091.42 1892C1035.2 1795.13 979.646 1697.87 923.424 1601C744.714 1293.08 568.135 983.922 389.424 676C299.395 520.877 210.454 365.123 120.424 210C92.0312 161.078 64.4399 111.662 35.6034 63C24.6753 44.5588 15.2244 18.0175 0 3z"/>
<path style="fill:#47b585; stroke:none;" d="M912 3L913 4L912 3M475 4L476 5L475 4M1891 4L1892 5L1891 4M476 6L477 7L476 6M1890 6L1891 7L1890 6M1889 7L1890 8L1889 7M477 8L478 9L477 8M1451 8L1452 9L1451 8M4 9L5 10L4 9M478 9L479 10L478 9M1888 9L1889 10L1888 9M916 10L917 11L916 10M479 11L480 12L479 11M1887 11L1888 12L1887 11M917 12L918 13L917 12M2360 12L2361 13L2360 12M480 13L481 14L480 13M1886 13L1887 14L1886 13M1885 14L1886 15L1885 14M2359 14L2360 15L2359 14M481 15L482 16L481 15M919 15L920 16L919 15M1447 15L1448 16L1447 15z"/>
<path style="fill:#01ffff; stroke:none;" d="M8 16L9 17L8 16z"/>
<path style="fill:#47b585; stroke:none;" d="M482 16L483 17L482 16M1884 16L1885 17L1884 16M483 18L484 19L483 18M1883 18L1884 19L1883 18M2356 19L2357 20L2356 19M484 20L485 21L484 20M1444 20L1445 21L1444 20M1882 20L1883 21L1882 20M11 21L12 22L11 21M1881 21L1882 22L1881 21z"/>
<path style="fill:#01ffff; stroke:none;" d="M2355 21L2356 22L2355 21z"/>
<path style="fill:#47b585; stroke:none;" d="M923 22L924 23L923 22M1443 22L1444 23L1443 22M486 23L487 24L486 23M1880 23L1881 24L1880 23M487 25L488 26L487 25M1879 25L1880 26L1879 25M1878 26L1879 27L1878 26M2352 26L2353 27L2352 26M488 27L489 28L488 27M1440 27L1441 28L1440 27M489 28L490 29L489 28M1877 28L1878 29L1877 28M927 29L928 30L927 29M1439 29L1440 30L1439 29M490 30L491 31L490 30M1876 30L1877 31L1876 30M491 32L492 33L491 32M1875 32L1876 33L1875 32M18 33L19 34L18 33M1874 33L1875 34L1874 33M2348 33L2349 34L2348 33M492 34L493 35L492 34M1436 34L1437 35L1436 34M19 35L20 36L19 35M493 35L494 36L493 35M1873 35L1874 36L1873 35M931 36L932 37L931 36M494 37L495 38L494 37M1872 37L1873 38L1872 37M495 39L496 40L495 39M1433 39L1434 40L1433 39M1871 39L1872 40L1871 39M22 40L23 41L22 40M1870 40L1871 41L1870 40z"/>
<path style="fill:#01ffff; stroke:none;" d="M2344 40L2345 41L2344 40z"/>
<path style="fill:#47b585; stroke:none;" d="M496 41L497 42L496 41M934 41L935 42L934 41M1432 41L1433 42L1432 41z"/>
<path style="fill:#01ffff; stroke:none;" d="M23 42L24 43L23 42z"/>
<path style="fill:#47b585; stroke:none;" d="M497 42L498 43L497 42M1869 42L1870 43L1869 42M1431 43L1432 44L1431 43M498 44L499 45L498 44M1868 44L1869 45L1868 44M499 46L500 47L499 46M1429 46L1430 47L1429 46M1867 46L1868 47L1867 46M26 47L27 48L26 47M500 47L501 48L500 47M1866 47L1867 48L1866 47M938 48L939 49L938 48M501 49L502 50L501 49M1865 49L1866 50L1865 49M2338 50L2339 51L2338 50M502 51L503 52L502 51M1864 51L1865 52L1864 51M1863 52L1864 53L1863 52M503 53L504 54L503 53M1425 53L1426 54L1425 53M504 54L505 55L504 54M1862 54L1863 55L1862 54M942 55L943 56L942 55M1424 55L1425 56L1424 55M505 56L506 57L505 56M1861 56L1862 57L1861 56M506 58L507 59L506 58M1860 58L1861 59L1860 58M33 59L34 60L33 59M1859 59L1860 60L1859 59M2333 59L2334 60L2333 59M507 60L508 61L507 60M1421 60L1422 61L1421 60M34 61L35 62L34 61M508 61L509 62L508 61M1858 61L1859 62L1858 61M946 62L947 63L946 62M509 63L510 64L509 63M1857 63L1858 64L1857 63M2330 64L2331 65L2330 64M510 65L511 66L510 65M1418 65L1419 66L1418 65M1856 65L1857 66L1856 65M37 66L38 67L37 66M1855 66L1856 67L1855 66z"/>
<path style="fill:#01ffff; stroke:none;" d="M2329 66L2330 67L2329 66z"/>
<path style="fill:#47b585; stroke:none;" d="M511 67L512 68L511 67M949 67L950 68L949 67M1417 67L1418 68L1417 67M512 68L513 69L512 68M1854 68L1855 69L1854 68M513 70L514 71L513 70M1853 70L1854 71L1853 70M1852.33 71.6666L1852.67 72.3334L1852.33 71.6666M2326 71L2327 72L2326 71M514 72L515 73L514 72M1414 72L1415 73L1414 72M41 73L42 74L41 73M515 73L516 74L515 73M1851 73L1852 74L1851 73M953 74L954 75L953 74M516 75L517 76L516 75M1850 75L1851 76L1850 75M954 76L955 77L954 76M2323 76L2324 77L2323 76M517 77L518 78L517 77M1849 77L1850 78L1849 77M1848 78L1849 79L1848 78M518 79L519 80L518 79M1410 79L1411 80L1410 79M45 80L46 81L45 80M519 80L520 81L519 80M1847 80L1848 81L1847 80M957 81L958 82L957 81M1409 81L1410 82L1409 81M2320 81L2321 82L2320 81M520 82L521 83L520 82M1846 82L1847 83L1846 82M521 84L522 85L521 84M1845 84L1846 85L1845 84M48 85L49 86L48 85M1844 85L1845 86L1844 85M2318 85L2319 86L2318 85M522 86L523 87L522 86M1406 86L1407 87L1406 86M49 87L50 88L49 87M523 87L524 88L523 87M1843 87L1844 88L1843 87M961 88L962 89L961 88M2316 88L2317 89L2316 88M524 89L525 90L524 89M1842 89L1843 90L1842 89M51 90L52 91L51 90M2315 90L2316 91L2315 90M525 91L526 92L525 91M1403 91L1404 92L1403 91M1841 91L1842 92L1841 91M52 92L53 93L52 92M1840 92L1841 93L1840 92z"/>
<path style="fill:#01ffff; stroke:none;" d="M2314 92L2315 93L2314 92z"/>
<path style="fill:#47b585; stroke:none;" d="M526 93L527 94L526 93M964 93L965 94L964 93M1402 93L1403 94L1402 93M527 94L528 95L527 94M1839 94L1840 95L1839 94M965 95L966 96L965 95M528 96L529 97L528 96M1838 96L1839 97L1838 96M1837 97L1838 98L1837 97M2311 97L2312 98L2311 97M529 98L530 99L529 98M1399 98L1400 99L1399 98M56 99L57 100L56 99M530 99L531 100L530 99M1836 99L1837 100L1836 99M968 100L969 101L968 100M531 101L532 102L531 101M1835 101L1836 102L1835 101M969 102L970 103L969 102M532 103L533 104L532 103M1834 103L1835 104L1834 103M1833 104L1834 105L1833 104M533 105L534 106L533 105M1395 105L1396 106L1395 105M60 106L61 107L60 106M534 106L535 107L534 106M1832 106L1833 107L1832 106M972 107L973 108L972 107M1394 107L1395 108L1394 107M535 108L536 109L535 108M1831 108L1832 109L1831 108M973 109L974 110L973 109M2304 109L2305 110L2304 109M536 110L537 111L536 110M1830 110L1831 111L1830 110M1829 111L1830 112L1829 111M2303 111L2304 112L2303 111M537 112L538 113L537 112M975 112L976 113L975 112M1391 112L1392 113L1391 112z"/>
<path style="fill:#01ffff; stroke:none;" d="M64 113L65 114L64 113z"/>
<path style="fill:#47b585; stroke:none;" d="M538 113L539 114L538 113M1828 113L1829 114L1828 113M1390 114L1391 115L1390 114M539 115L540 116L539 115M1827 115L1828 116L1827 115M66 116L67 117L66 116M2300 116L2301 117L2300 116M540 117L541 118L540 117M1388 117L1389 118L1388 117M1826 117L1827 118L1826 117M1825 118L1826 119L1825 118z"/>
<path style="fill:#01ffff; stroke:none;" d="M2299 118L2300 119L2299 118z"/>
<path style="fill:#47b585; stroke:none;" d="M979 119L980 120L979 119M1387 119L1388 120L1387 119M542 120L543 121L542 120M1824 120L1825 121L1824 120M543 122L544 123L543 122M1823 122L1824 123L1823 122M1822 123L1823 124L1822 123M2296 123L2297 124L2296 123M544 124L545 125L544 124M1384 124L1385 125L1384 124M545 125L546 126L545 125M1821 125L1822 126L1821 125M983 126L984 127L983 126M1383 126L1384 127L1383 126M546 127L547 128L546 127M1820 127L1821 128L1820 127M547 129L548 130L547 129M1819 129L1820 130L1819 129M74 130L75 131L74 130M1818 130L1819 131L1818 130M548 131L549 132L548 131M1380 131L1381 132L1380 131M75 132L76 133L75 132M549 132L550 133L549 132M1817 132L1818 133L1817 132M987 133L988 134L987 133M550 134L551 135L550 134M1816 134L1817 135L1816 134M988 135L989 136L988 135M2289 135L2290 136L2289 135M551 136L552 137L551 136M1815 136L1816 137L1815 136M78 137L79 138L78 137M1814 137L1815 138L1814 137M2288 137L2289 138L2288 137M552 138L553 139L552 138M990 138L991 139L990 138M1376 138L1377 139L1376 138z"/>
<path style="fill:#01ffff; stroke:none;" d="M79 139L80 140L79 139z"/>
<path style="fill:#47b585; stroke:none;" d="M553 139L554 140L553 139M1813 139L1814 140L1813 139M1375 140L1376 141L1375 140M554 141L555 142L554 141M1812 141L1813 142L1812 141M555 143L556 144L555 143M1373 143L1374 144L1373 143M1811 143L1812 144L1811 143M82 144L83 145L82 144M1810 144L1811 145L1810 144M994 145L995 146L994 145M557 146L558 147L557 146M1809 146L1810 147L1809 146M2282 147L2283 148L2282 147M558 148L559 149L558 148M1808 148L1809 149L1808 148M1807 149L1808 150L1807 149M559 150L560 151L559 150M1369 150L1370 151L1369 150M560 151L561 152L560 151M1806 151L1807 152L1806 151M998 152L999 153L998 152M1368 152L1369 153L1368 152M561 153L562 154L561 153M1805 153L1806 154L1805 153M562 155L563 156L562 155M1804 155L1805 156L1804 155M89 156L90 157L89 156M1803 156L1804 157L1803 156M2277 156L2278 157L2277 156M563 157L564 158L563 157M1365 157L1366 158L1365 157M90 158L91 159L90 158M564 158L565 159L564 158M1802 158L1803 159L1802 158M1002 159L1003 160L1002 159M565 160L566 161L565 160M1801 160L1802 161L1801 160M2274 161L2275 162L2274 161M566 162L567 163L566 162M1362 162L1363 163L1362 162M1800 162L1801 163L1800 162M93 163L94 164L93 163M1799 163L1800 164L1799 163z"/>
<path style="fill:#01ffff; stroke:none;" d="M2273 163L2274 164L2273 163z"/>
<path style="fill:#47b585; stroke:none;" d="M567 164L568 165L567 164M1005 164L1006 165L1005 164M1361 164L1362 165L1361 164z"/>
<path style="fill:#01ffff; stroke:none;" d="M94 165L95 166L94 165z"/>
<path style="fill:#47b585; stroke:none;" d="M568 165L569 166L568 165M1798 165L1799 166L1798 165M1360 166L1361 167L1360 166M569 167L570 168L569 167M1797 167L1798 168L1797 167M1796.33 168.667L1796.67 169.333L1796.33 168.667M570 169L571 170L570 169M1358 169L1359 170L1358 169M97 170L98 171L97 170M571 170L572 171L571 170M1795 170L1796 171L1795 170M1009 171L1010 172L1009 171M572 172L573 173L572 172M1794 172L1795 173L1794 172M1010 173L1011 174L1010 173M2267 173L2268 174L2267 173M573 174L574 175L573 174M1793 174L1794 175L1793 174M1792 175L1793 176L1792 175M574 176L575 177L574 176M1354 176L1355 177L1354 176M101 177L102 178L101 177M575 177L576 178L575 177M1791 177L1792 178L1791 177M1013 178L1014 179L1013 178M1353 178L1354 179L1353 178M2264 178L2265 179L2264 178M576 179L577 180L576 179M1790 179L1791 180L1790 179M577 181L578 182L577 181M1789 181L1790 182L1789 181M104 182L105 183L104 182M1788 182L1789 183L1788 182M2262 182L2263 183L2262 182M578 183L579 184L578 183M1350 183L1351 184L1350 183M105 184L106 185L105 184M579 184L580 185L579 184M1787 184L1788 185L1787 184M1017 185L1018 186L1017 185M2260 185L2261 186L2260 185M580 186L581 187L580 186M1786 186L1787 187L1786 186M2259 187L2260 188L2259 187M581 188L582 189L581 188M1347 188L1348 189L1347 188M1785 188L1786 189L1785 188M108 189L109 190L108 189M1784 189L1785 190L1784 189z"/>
<path style="fill:#01ffff; stroke:none;" d="M2258 189L2259 190L2258 189z"/>
<path style="fill:#47b585; stroke:none;" d="M582 190L583 191L582 190M1020 190L1021 191L1020 190M1346 190L1347 191L1346 190M583 191L584 192L583 191M1783 191L1784 192L1783 191M1021 192L1022 193L1021 192M584 193L585 194L584 193M1782 193L1783 194L1782 193M1781 194L1782 195L1781 194M2255 194L2256 195L2255 194M585 195L586 196L585 195M1343 195L1344 196L1343 195M112 196L113 197L112 196M586 196L587 197L586 196M1780 196L1781 197L1780 196M1024 197L1025 198L1024 197M587 198L588 199L587 198M1779 198L1780 199L1779 198M1025 199L1026 200L1025 199M588 200L589 201L588 200M1778 200L1779 201L1778 200M1777 201L1778 202L1777 201M589 202L590 203L589 202M1339 202L1340 203L1339 202M116 203L117 204L116 203M590 203L591 204L590 203M1776 203L1777 204L1776 203M1028 204L1029 205L1028 204M1338 204L1339 205L1338 204M591 205L592 206L591 205M1775 205L1776 206L1775 205M2248 206L2249 207L2248 206M592 207L593 208L592 207M1774 207L1775 208L1774 207M1773 208L1774 209L1773 208M2247 208L2248 209L2247 208M593 209L594 210L593 209M1031 209L1032 210L1031 209M1335 209L1336 210L1335 209z"/>
<path style="fill:#01ffff; stroke:none;" d="M120 210L121 211L120 210z"/>
<path style="fill:#47b585; stroke:none;" d="M594 210L595 211L594 210M1772 210L1773 211L1772 210M595 212L596 213L595 212M1771 212L1772 213L1771 212M122 213L123 214L122 213M2244 213L2245 214L2244 213M596 214L597 215L596 214M1332 214L1333 215L1332 214M1770 214L1771 215L1770 214M1769 215L1770 216L1769 215z"/>
<path style="fill:#01ffff; stroke:none;" d="M2243 215L2244 216L2243 215z"/>
<path style="fill:#47b585; stroke:none;" d="M1035 216L1036 217L1035 216M598 217L599 218L598 217M1768 217L1769 218L1768 217M599 219L600 220L599 219M1767 219L1768 220L1767 219M1766 220L1767 221L1766 220M2240 220L2241 221L2240 220M600 221L601 222L600 221M1328 221L1329 222L1328 221M601 222L602 223L601 222M1765 222L1766 223L1765 222M1039 223L1040 224L1039 223M602 224L603 225L602 224M1764 224L1765 225L1764 224M603 226L604 227L603 226M1763 226L1764 227L1763 226M1762 227L1763 228L1762 227M604 228L605 229L604 228M1324 228L1325 229L1324 228M131 229L132 230L131 229M605 229L606 230L605 229M1761 229L1762 230L1761 229M1043 230L1044 231L1043 230M606 231L607 232L606 231M1760 231L1761 232L1760 231M1044 232L1045 233L1044 232M2233 232L2234 233L2233 232M607 233L608 234L607 233M1759 233L1760 234L1759 233M134 234L135 235L134 234M1758 234L1759 235L1758 234M2232 234L2233 235L2232 234M608 235L609 236L608 235M1046 235L1047 236L1046 235M1320 235L1321 236L1320 235z"/>
<path style="fill:#01ffff; stroke:none;" d="M135 236L136 237L135 236z"/>
<path style="fill:#47b585; stroke:none;" d="M609 236L610 237L609 236M1757 236L1758 237L1757 236M610 238L611 239L610 238M1756 238L1757 239L1756 238M2229 239L2230 240L2229 239M611 240L612 241L611 240M1317 240L1318 241L1317 240M1755 240L1756 241L1755 240M138 241L139 242L138 241M1754 241L1755 242L1754 241z"/>
<path style="fill:#01ffff; stroke:none;" d="M2228 241L2229 242L2228 241z"/>
<path style="fill:#47b585; stroke:none;" d="M1050 242L1051 243L1050 242M613 243L614 244L613 243M1753 243L1754 244L1753 243M614 245L615 246L614 245M1752 245L1753 246L1752 245M1751 246L1752 247L1751 246M615 247L616 248L615 247M1313 247L1314 248L1313 247M616 248L617 249L616 248M1750 248L1751 249L1750 248M1054 249L1055 250L1054 249M1312 249L1313 250L1312 249M617 250L618 251L617 250M1749 250L1750 251L1749 250M618 252L619 253L618 252M1748 252L1749 253L1748 252M145 253L146 254L145 253M1747 253L1748 254L1747 253M2221 253L2222 254L2221 253M619 254L620 255L619 254M1309 254L1310 255L1309 254M146 255L147 256L146 255M620 255L621 256L620 255M1746 255L1747 256L1746 255M1058 256L1059 257L1058 256M621 257L622 258L621 257M1745 257L1746 258L1745 257M2218 258L2219 259L2218 258M622 259L623 260L622 259M1306 259L1307 260L1306 259M1744 259L1745 260L1744 259M149 260L150 261L149 260M1743 260L1744 261L1743 260z"/>
<path style="fill:#01ffff; stroke:none;" d="M2217 260L2218 261L2217 260z"/>
<path style="fill:#47b585; stroke:none;" d="M623 261L624 262L623 261M1061 261L1062 262L1061 261M1305 261L1306 262L1305 261z"/>
<path style="fill:#01ffff; stroke:none;" d="M150 262L151 263L150 262z"/>
<path style="fill:#47b585; stroke:none;" d="M624 262L625 263L624 262M1742 262L1743 263L1742 262M1304 263L1305 264L1304 263M625 264L626 265L625 264M1741 264L1742 265L1741 264M1740.33 265.667L1740.67 266.333L1740.33 265.667M626 266L627 267L626 266M1302 266L1303 267L1302 266M153 267L154 268L153 267M627 267L628 268L627 267M1739 267L1740 268L1739 267M1065 268L1066 269L1065 268M628 269L629 270L628 269M1738 269L1739 270L1738 269M1066 270L1067 271L1066 270M2211 270L2212 271L2211 270M629 271L630 272L629 271M1737 271L1738 272L1737 271M1736 272L1737 273L1736 272M630 273L631 274L630 273M1298 273L1299 274L1298 273M631 274L632 275L631 274M1735 274L1736 275L1735 274M1069 275L1070 276L1069 275M1297 275L1298 276L1297 275M2208 275L2209 276L2208 275M632 276L633 277L632 276M1734 276L1735 277L1734 276M633 278L634 279L633 278M1733 278L1734 279L1733 278M160 279L161 280L160 279M1732 279L1733 280L1732 279M2206 279L2207 280L2206 279M634 280L635 281L634 280M1294 280L1295 281L1294 280M161 281L162 282L161 281M635 281L636 282L635 281M1731 281L1732 282L1731 281M1073 282L1074 283L1073 282M2204 282L2205 283L2204 282M636 283L637 284L636 283M1730 283L1731 284L1730 283M2203 284L2204 285L2203 284M637 285L638 286L637 285M1291 285L1292 286L1291 285M1729 285L1730 286L1729 285M164 286L165 287L164 286M1728 286L1729 287L1728 286z"/>
<path style="fill:#01ffff; stroke:none;" d="M2202 286L2203 287L2202 286z"/>
<path style="fill:#47b585; stroke:none;" d="M638 287L639 288L638 287M1076 287L1077 288L1076 287M1290 287L1291 288L1290 287M639 288L640 289L639 288M1727 288L1728 289L1727 288M640 290L641 291L640 290M1726 290L1727 291L1726 290M1725.33 291.667L1725.67 292.333L1725.33 291.667M2199 291L2200 292L2199 291M641 292L642 293L641 292M1287 292L1288 293L1287 292M168 293L169 294L168 293M642 293L643 294L642 293M1724 293L1725 294L1724 293M1080 294L1081 295L1080 294M643 295L644 296L643 295M1723 295L1724 296L1723 295M1081 296L1082 297L1081 296M644 297L645 298L644 297M1722 297L1723 298L1722 297M1721 298L1722 299L1721 298M645 299L646 300L645 299M1283 299L1284 300L1283 299M172 300L173 301L172 300M646 300L647 301L646 300M1720 300L1721 301L1720 300M1084 301L1085 302L1084 301M1282 301L1283 302L1282 301M647 302L648 303L647 302M1719 302L1720 303L1719 302M648 304L649 305L648 304M1718 304L1719 305L1718 304M1717 305L1718 306L1717 305M2191 305L2192 306L2191 305M649 306L650 307L649 306M1279 306L1280 307L1279 306M176 307L177 308L176 307M650 307L651 308L650 307M1716 307L1717 308L1716 307M1088 308L1089 309L1088 308M2189 308L2190 309L2189 308M651 309L652 310L651 309M1715 309L1716 310L1715 309M178 310L179 311L178 310M2188 310L2189 311L2188 310M652 311L653 312L652 311M1276 311L1277 312L1276 311M1714 311L1715 312L1714 311M179 312L180 313L179 312M1713 312L1714 313L1713 312z"/>
<path style="fill:#01ffff; stroke:none;" d="M2187 312L2188 313L2187 312z"/>
<path style="fill:#47b585; stroke:none;" d="M653 313L654 314L653 313M1091 313L1092 314L1091 313M654 314L655 315L654 314M1712 314L1713 315L1712 314M655 316L656 317L655 316M1711 316L1712 317L1711 316M1710 317L1711 318L1710 317M2184 317L2185 318L2184 317M656 318L657 319L656 318M1272 318L1273 319L1272 318M657 319L658 320L657 319M1709 319L1710 320L1709 319M1095 320L1096 321L1095 320M658 321L659 322L658 321M1708 321L1709 322L1708 321M659 323L660 324L659 323M1707 323L1708 324L1707 323M1706 324L1707 325L1706 324M660 325L661 326L660 325M1268 325L1269 326L1268 325M187 326L188 327L187 326M661 326L662 327L661 326M1705 326L1706 327L1705 326M1099 327L1100 328L1099 327M662 328L663 329L662 328M1704 328L1705 329L1704 328M1100 329L1101 330L1100 329M2177 329L2178 330L2177 329M663 330L664 331L663 330M1703 330L1704 331L1703 330M1702 331L1703 332L1702 331M2176 331L2177 332L2176 331M664 332L665 333L664 332M1102 332L1103 333L1102 332M1264 332L1265 333L1264 332z"/>
<path style="fill:#01ffff; stroke:none;" d="M191 333L192 334L191 333z"/>
<path style="fill:#47b585; stroke:none;" d="M665 333L666 334L665 333M1701 333L1702 334L1701 333M666 335L667 336L666 335M1700 335L1701 336L1700 335M2173 336L2174 337L2173 336M667 337L668 338L667 337M1261 337L1262 338L1261 337M1699 337L1700 338L1699 337M194 338L195 339L194 338M1698 338L1699 339L1698 338z"/>
<path style="fill:#01ffff; stroke:none;" d="M2172 338L2173 339L2172 338z"/>
<path style="fill:#47b585; stroke:none;" d="M1106 339L1107 340L1106 339M1260 339L1261 340L1260 339M669 340L670 341L669 340M1697 340L1698 341L1697 340M670 342L671 343L670 342M1696 342L1697 343L1696 342M1695 343L1696 344L1695 343M2169 343L2170 344L2169 343M671 344L672 345L671 344M1257 344L1258 345L1257 344M672 345L673 346L672 345M1694 345L1695 346L1694 345M1110 346L1111 347L1110 346M1256 346L1257 347L1256 346M673 347L674 348L673 347M1693 347L1694 348L1693 347M674 349L675 350L674 349M1692 349L1693 350L1692 349M201 350L202 351L201 350M1691 350L1692 351L1691 350M2165 350L2166 351L2165 350M675 351L676 352L675 351M1253 351L1254 352L1253 351M202 352L203 353L202 352M676 352L677 353L676 352M1690 352L1691 353L1690 352M1114 353L1115 354L1114 353M677 354L678 355L677 354M1689 354L1690 355L1689 354M678 356L679 357L678 356M1250 356L1251 357L1250 356M1688 356L1689 357L1688 356M205 357L206 358L205 357M1687 357L1688 358L1687 357z"/>
<path style="fill:#01ffff; stroke:none;" d="M2161 357L2162 358L2161 357z"/>
<path style="fill:#47b585; stroke:none;" d="M679 358L680 359L679 358M1117 358L1118 359L1117 358M1249 358L1250 359L1249 358z"/>
<path style="fill:#01ffff; stroke:none;" d="M206 359L207 360L206 359z"/>
<path style="fill:#47b585; stroke:none;" d="M680 359L681 360L680 359M1686 359L1687 360L1686 359M1248 360L1249 361L1248 360M681 361L682 362L681 361M1685 361L1686 362L1685 361M1684.33 362.667L1684.67 363.333L1684.33 362.667M682 363L683 364L682 363M1246 363L1247 364L1246 363M209 364L210 365L209 364M683 364L684 365L683 364M1683 364L1684 365L1683 364M1121 365L1122 366L1121 365M684 366L685 367L684 366M1682 366L1683 367L1682 366M1122 367L1123 368L1122 367M2155 367L2156 368L2155 367M685 368L686 369L685 368M1681 368L1682 369L1681 368M1680 369L1681 370L1680 369M686 370L687 371L686 370M1242 370L1243 371L1242 370M687 371L688 372L687 371M1679 371L1680 372L1679 371M1125 372L1126 373L1125 372M1241 372L1242 373L1241 372M688 373L689 374L688 373M1678 373L1679 374L1678 373M689 375L690 376L689 375M1677 375L1678 376L1677 375M216 376L217 377L216 376M1676 376L1677 377L1676 376M2150 376L2151 377L2150 376M690 377L691 378L690 377M1238 377L1239 378L1238 377M217 378L218 379L217 378M691 378L692 379L691 378M1675 378L1676 379L1675 378M1129 379L1130 380L1129 379M692 380L693 381L692 380M1674 380L1675 381L1674 380M2147 381L2148 382L2147 381M693 382L694 383L693 382M1235 382L1236 383L1235 382M1673 382L1674 383L1673 382M220 383L221 384L220 383M1672 383L1673 384L1672 383z"/>
<path style="fill:#01ffff; stroke:none;" d="M2146 383L2147 384L2146 383z"/>
<path style="fill:#47b585; stroke:none;" d="M694 384L695 385L694 384M1132 384L1133 385L1132 384M1234 384L1235 385L1234 384z"/>
<path style="fill:#01ffff; stroke:none;" d="M221 385L222 386L221 385z"/>
<path style="fill:#47b585; stroke:none;" d="M695 385L696 386L695 385M1671 385L1672 386L1671 385M696 387L697 388L696 387M1670 387L1671 388L1670 387M1669.33 388.667L1669.67 389.333L1669.33 388.667M2143 388L2144 389L2143 388M697 389L698 390L697 389M1231 389L1232 390L1231 389M224 390L225 391L224 390M698 390L699 391L698 390M1668 390L1669 391L1668 390M1136 391L1137 392L1136 391M699 392L700 393L699 392M1667 392L1668 393L1667 392M1137 393L1138 394L1137 393M2140 393L2141 394L2140 393M700 394L701 395L700 394M1666 394L1667 395L1666 394M1665 395L1666 396L1665 395M701 396L702 397L701 396M1227 396L1228 397L1227 396M228 397L229 398L228 397M702 397L703 398L702 397M1664 397L1665 398L1664 397M1140 398L1141 399L1140 398M1226 398L1227 399L1226 398M2137 398L2138 399L2137 398M703 399L704 400L703 399M1663 399L1664 400L1663 399M704 401L705 402L704 401M1662 401L1663 402L1662 401M231 402L232 403L231 402M1661 402L1662 403L1661 402M2135 402L2136 403L2135 402M705 403L706 404L705 403M1223 403L1224 404L1223 403M232 404L233 405L232 404M706 404L707 405L706 404M1660 404L1661 405L1660 404M1144 405L1145 406L1144 405M2133 405L2134 406L2133 405M707 406L708 407L707 406M1659 406L1660 407L1659 406M234 407L235 408L234 407M2132 407L2133 408L2132 407M708 408L709 409L708 408M1220 408L1221 409L1220 408M1658 408L1659 409L1658 408M235 409L236 410L235 409M1657 409L1658 410L1657 409z"/>
<path style="fill:#01ffff; stroke:none;" d="M2131 409L2132 410L2131 409z"/>
<path style="fill:#47b585; stroke:none;" d="M709 410L710 411L709 410M1147 410L1148 411L1147 410M1219 410L1220 411L1219 410M710 411L711 412L710 411M1656 411L1657 412L1656 411M1148 412L1149 413L1148 412M711 413L712 414L711 413M1655 413L1656 414L1655 413M1654 414L1655 415L1654 414M2128 414L2129 415L2128 414M712 415L713 416L712 415M1216 415L1217 416L1216 415M239 416L240 417L239 416M713 416L714 417L713 416M1653 416L1654 417L1653 416M1151 417L1152 418L1151 417M714 418L715 419L714 418M1652 418L1653 419L1652 418M1152 419L1153 420L1152 419M715 420L716 421L715 420M1651 420L1652 421L1651 420M1650 421L1651 422L1650 421M716 422L717 423L716 422M1212 422L1213 423L1212 422M243 423L244 424L243 423M717 423L718 424L717 423M1649 423L1650 424L1649 423M1155 424L1156 425L1155 424M1211 424L1212 425L1211 424M718 425L719 426L718 425M1648 425L1649 426L1648 425M1156 426L1157 427L1156 426M2121 426L2122 427L2121 426M719 427L720 428L719 427M1647 427L1648 428L1647 427M1646 428L1647 429L1646 428M2120 428L2121 429L2120 428M720 429L721 430L720 429M1158 429L1159 430L1158 429M1208 429L1209 430L1208 429z"/>
<path style="fill:#01ffff; stroke:none;" d="M247 430L248 431L247 430z"/>
<path style="fill:#47b585; stroke:none;" d="M721 430L722 431L721 430M1645 430L1646 431L1645 430M1207 431L1208 432L1207 431M722 432L723 433L722 432M1644 432L1645 433L1644 432M249 433L250 434L249 433M2117 433L2118 434L2117 433M723 434L724 435L723 434M1205 434L1206 435L1205 434M1643 434L1644 435L1643 434M1642 435L1643 436L1642 435z"/>
<path style="fill:#01ffff; stroke:none;" d="M2116 435L2117 436L2116 435z"/>
<path style="fill:#47b585; stroke:none;" d="M1162 436L1163 437L1162 436M1204 436L1205 437L1204 436M725 437L726 438L725 437M1641 437L1642 438L1641 437M726 439L727 440L726 439M1640 439L1641 440L1640 439M1639 440L1640 441L1639 440M2113 440L2114 441L2113 440M727 441L728 442L727 441M1201 441L1202 442L1201 441M728 442L729 443L728 442M1638 442L1639 443L1638 442M1166 443L1167 444L1166 443M1200 443L1201 444L1200 443M729 444L730 445L729 444M1637 444L1638 445L1637 444M730 446L731 447L730 446M1636 446L1637 447L1636 446M257 447L258 448L257 447M1635 447L1636 448L1635 447M731 448L732 449L731 448M1197 448L1198 449L1197 448M258 449L259 450L258 449M732 449L733 450L732 449M1634 449L1635 450L1634 449M1170 450L1171 451L1170 450M733 451L734 452L733 451M1633 451L1634 452L1633 451M1171 452L1172 453L1171 452M2106 452L2107 453L2106 452M734 453L735 454L734 453M1632 453L1633 454L1632 453M261 454L262 455L261 454M1631 454L1632 455L1631 454M2105 454L2106 455L2105 454M735 455L736 456L735 455M1173 455L1174 456L1173 455M1193 455L1194 456L1193 455z"/>
<path style="fill:#01ffff; stroke:none;" d="M262 456L263 457L262 456z"/>
<path style="fill:#47b585; stroke:none;" d="M736 456L737 457L736 456M1630 456L1631 457L1630 456M1192 457L1193 458L1192 457M737 458L738 459L737 458M1629 458L1630 459L1629 458M1628.33 459.667L1628.67 460.333L1628.33 459.667M738 460L739 461L738 460M1190 460L1191 461L1190 460M265 461L266 462L265 461M739 461L740 462L739 461M1627 461L1628 462L1627 461M1177 462L1178 463L1177 462M740 463L741 464L740 463M1626 463L1627 464L1626 463M2099 464L2100 465L2099 464M741 465L742 466L741 465M1625 465L1626 466L1625 465M1624 466L1625 467L1624 466M742 467L743 468L742 467M1186 467L1187 468L1186 467M743 468L744 469L743 468M1623 468L1624 469L1623 468M1181 469L1182 470L1181 469M1185 469L1186 470L1185 469M744 470L745 471L744 470M1622 470L1623 471L1622 470M745 472L746 473L745 472M1621 472L1622 473L1621 472M1620 473L1621 474L1620 473M2094 473L2095 474L2094 473M746 474L747 475L746 474M273 475L274 476L273 475M747 475L748 476L747 475M1619 475L1620 476L1619 475M748 477L749 478L748 477M1618 477L1619 478L1618 477M2091 478L2092 479L2091 478M749 479L750 480L749 479M1617 479L1618 480L1617 479M276 480L277 481L276 480M1616 480L1617 481L1616 480z"/>
<path style="fill:#01ffff; stroke:none;" d="M2090 480L2091 481L2090 480z"/>
<path style="fill:#47b585; stroke:none;" d="M750 481L751 482L750 481z"/>
<path style="fill:#01ffff; stroke:none;" d="M277 482L278 483L277 482z"/>
<path style="fill:#47b585; stroke:none;" d="M751 482L752 483L751 482M1615 482L1616 483L1615 482M752 484L753 485L752 484M1614 484L1615 485L1614 484M1613.33 485.667L1613.67 486.333L1613.33 485.667M753 486L754 487L753 486M280 487L281 488L280 487M754 487L755 488L754 487M1612 487L1613 488L1612 487M755 489L756 490L755 489M1611 489L1612 490L1611 489M2084 490L2085 491L2084 490M756 491L757 492L756 491M1610 491L1611 492L1610 491M1609 492L1610 493L1609 492M757 493L758 494L757 493M284 494L285 495L284 494M758 494L759 495L758 494M1608 494L1609 495L1608 494M2081 495L2082 496L2081 495M759 496L760 497L759 496M1607 496L1608 497L1607 496M760 498L761 499L760 498M1606 498L1607 499L1606 498M287 499L288 500L287 499M1605 499L1606 500L1605 499M2079 499L2080 500L2079 499M761 500L762 501L761 500M288 501L289 502L288 501M762 501L763 502L762 501M1604 501L1605 502L1604 501M2077 502L2078 503L2077 502M763 503L764 504L763 503M1603 503L1604 504L1603 503M2076 504L2077 505L2076 504M764 505L765 506L764 505M1602 505L1603 506L1602 505M291 506L292 507L291 506M1601 506L1602 507L1601 506z"/>
<path style="fill:#01ffff; stroke:none;" d="M2075 506L2076 507L2075 506z"/>
<path style="fill:#47b585; stroke:none;" d="M765 507L766 508L765 507M766 508L767 509L766 508M1600 508L1601 509L1600 508M767 510L768 511L767 510M1599 510L1600 511L1599 510M1598 511L1599 512L1598 511M2072 511L2073 512L2072 511M768 512L769 513L768 512M295 513L296 514L295 513M769 513L770 514L769 513M1597 513L1598 514L1597 513M770 515L771 516L770 515M1596 515L1597 516L1596 515M771 517L772 518L771 517M1595 517L1596 518L1595 517M1594 518L1595 519L1594 518M772 519L773 520L772 519M299 520L300 521L299 520M773 520L774 521L773 520M1593 520L1594 521L1593 520M774 522L775 523L774 522M1592 522L1593 523L1592 522M2065 523L2066 524L2065 523M775 524L776 525L775 524M1591 524L1592 525L1591 524M1590 525L1591 526L1590 525M2064 525L2065 526L2064 525M776 526L777 527L776 526z"/>
<path style="fill:#01ffff; stroke:none;" d="M303 527L304 528L303 527z"/>
<path style="fill:#47b585; stroke:none;" d="M777 527L778 528L777 527M1589 527L1590 528L1589 527M778 529L779 530L778 529M1588 529L1589 530L1588 529M305 530L306 531L305 530M2061 530L2062 531L2061 530M779 531L780 532L779 531M1587 531L1588 532L1587 531M1586 532L1587 533L1586 532z"/>
<path style="fill:#01ffff; stroke:none;" d="M2060 532L2061 533L2060 532z"/>
<path style="fill:#47b585; stroke:none;" d="M781 534L782 535L781 534M1585 534L1586 535L1585 534M782 536L783 537L782 536M1584 536L1585 537L1584 536M1583 537L1584 538L1583 537M2057 537L2058 538L2057 537M783 538L784 539L783 538M784 539L785 540L784 539M1582 539L1583 540L1582 539M785 541L786 542L785 541M1581 541L1582 542L1581 541M786 543L787 544L786 543M1580 543L1581 544L1580 543M1579 544L1580 545L1579 544M787 545L788 546L787 545M314 546L315 547L314 546M788 546L789 547L788 546M1578 546L1579 547L1578 546M789 548L790 549L789 548M1577 548L1578 549L1577 548M2050 549L2051 550L2050 549M790 550L791 551L790 550M1576 550L1577 551L1576 550M317 551L318 552L317 551M1575 551L1576 552L1575 551M2049 551L2050 552L2049 551M791 552L792 553L791 552z"/>
<path style="fill:#01ffff; stroke:none;" d="M318 553L319 554L318 553z"/>
<path style="fill:#47b585; stroke:none;" d="M792 553L793 554L792 553M1574 553L1575 554L1574 553M793 555L794 556L793 555M1573 555L1574 556L1573 555M2046 556L2047 557L2046 556M794 557L795 558L794 557M1572 557L1573 558L1572 557M321 558L322 559L321 558M795 558L796 559L795 558M1571 558L1572 559L1571 558z"/>
<path style="fill:#01ffff; stroke:none;" d="M2045 558L2046 559L2045 558z"/>
<path style="fill:#47b585; stroke:none;" d="M796 560L797 561L796 560M1570 560L1571 561L1570 560M797 562L798 563L797 562M1569 562L1570 563L1569 562M1568 563L1569 564L1568 563M798 564L799 565L798 564M799 565L800 566L799 565M1567 565L1568 566L1567 565M800 567L801 568L800 567M1566 567L1567 568L1566 567M801 569L802 570L801 569M1565 569L1566 570L1565 569M328 570L329 571L328 570M1564 570L1565 571L1564 570M2038 570L2039 571L2038 570M802 571L803 572L802 571M329 572L330 573L329 572M803 572L804 573L803 572M1563 572L1564 573L1563 572M804 574L805 575L804 574M1562 574L1563 575L1562 574M2035 575L2036 576L2035 575M805 576L806 577L805 576M1561 576L1562 577L1561 576M332 577L333 578L332 577M1560 577L1561 578L1560 577z"/>
<path style="fill:#01ffff; stroke:none;" d="M2034 577L2035 578L2034 577z"/>
<path style="fill:#47b585; stroke:none;" d="M806 578L807 579L806 578z"/>
<path style="fill:#01ffff; stroke:none;" d="M333 579L334 580L333 579z"/>
<path style="fill:#47b585; stroke:none;" d="M807 579L808 580L807 579M1559 579L1560 580L1559 579M808 581L809 582L808 581M1558 581L1559 582L1558 581M1557.33 582.667L1557.67 583.333L1557.33 582.667M809 583L810 584L809 583M336 584L337 585L336 584M810 584L811 585L810 584M1556 584L1557 585L1556 584M811 586L812 587L811 586M1555 586L1556 587L1555 586M2028 587L2029 588L2028 587M812 588L813 589L812 588M1554 588L1555 589L1554 588M1553 589L1554 590L1553 589M813 590L814 591L813 590M814 591L815 592L814 591M1552 591L1553 592L1552 591M2025 592L2026 593L2025 592M815 593L816 594L815 593M1551 593L1552 594L1551 593M816 595L817 596L816 595M1550 595L1551 596L1550 595M343 596L344 597L343 596M1549 596L1550 597L1549 596M2023 596L2024 597L2023 596M817 597L818 598L817 597M344 598L345 599L344 598M818 598L819 599L818 598M1548 598L1549 599L1548 598M2021 599L2022 600L2021 599M819 600L820 601L819 600M1547 600L1548 601L1547 600M2020 601L2021 602L2020 601M820 602L821 603L820 602M1546 602L1547 603L1546 602M347 603L348 604L347 603M1545 603L1546 604L1545 603z"/>
<path style="fill:#01ffff; stroke:none;" d="M2019 603L2020 604L2019 603z"/>
<path style="fill:#47b585; stroke:none;" d="M821 604L822 605L821 604M822 605L823 606L822 605M1544 605L1545 606L1544 605M823 607L824 608L823 607M1543 607L1544 608L1543 607M1542 608L1543 609L1542 608M2016 608L2017 609L2016 608M824 609L825 610L824 609M351 610L352 611L351 610M825 610L826 611L825 610M1541 610L1542 611L1541 610M826 612L827 613L826 612M1540 612L1541 613L1540 612M827 614L828 615L827 614M1539 614L1540 615L1539 614M1538 615L1539 616L1538 615M828 616L829 617L828 616M355 617L356 618L355 617M829 617L830 618L829 617M1537 617L1538 618L1537 617M2010 618L2011 619L2010 618M830 619L831 620L830 619M1536 619L1537 620L1536 619M831 621L832 622L831 621M1535 621L1536 622L1535 621M1534 622L1535 623L1534 622M2008 622L2009 623L2008 622M832 623L833 624L832 623M359 624L360 625L359 624M833 624L834 625L833 624M1533 624L1534 625L1533 624M2006 625L2007 626L2006 625M834 626L835 627L834 626M1532 626L1533 627L1532 626M361 627L362 628L361 627M2005 627L2006 628L2005 627M835 628L836 629L835 628M1531 628L1532 629L1531 628M362 629L363 630L362 629M1530 629L1531 630L1530 629z"/>
<path style="fill:#01ffff; stroke:none;" d="M2004 629L2005 630L2004 629z"/>
<path style="fill:#47b585; stroke:none;" d="M837 631L838 632L837 631M1529 631L1530 632L1529 631M838 633L839 634L838 633M1528 633L1529 634L1528 633M1527 634L1528 635L1527 634M2001 634L2002 635L2001 634M839 635L840 636L839 635M840 636L841 637L840 636M1526 636L1527 637L1526 636M841 638L842 639L841 638M1525 638L1526 639L1525 638M842 640L843 641L842 640M1524 640L1525 641L1524 640M1523 641L1524 642L1523 641M843 642L844 643L843 642M370 643L371 644L370 643M844 643L845 644L844 643M1522 643L1523 644L1522 643M845 645L846 646L845 645M1521 645L1522 646L1521 645M1994 646L1995 647L1994 646M846 647L847 648L846 647M1520 647L1521 648L1520 647M1519 648L1520 649L1519 648M1993 648L1994 649L1993 648M847 649L848 650L847 649z"/>
<path style="fill:#01ffff; stroke:none;" d="M374 650L375 651L374 650z"/>
<path style="fill:#47b585; stroke:none;" d="M848 650L849 651L848 650M1518 650L1519 651L1518 650M849 652L850 653L849 652M1517 652L1518 653L1517 652M1990 653L1991 654L1990 653M850 654L851 655L850 654M1516 654L1517 655L1516 654M377 655L378 656L377 655M1515 655L1516 656L1515 655z"/>
<path style="fill:#01ffff; stroke:none;" d="M1989 655L1990 656L1989 655z"/>
<path style="fill:#47b585; stroke:none;" d="M852 657L853 658L852 657M1514 657L1515 658L1514 657M853 659L854 660L853 659M1513 659L1514 660L1513 659M1512 660L1513 661L1512 660M1986 660L1987 661L1986 660M854 661L855 662L854 661M855 662L856 663L855 662M1511 662L1512 663L1511 662M856 664L857 665L856 664M1510 664L1511 665L1510 664M857 666L858 667L857 666M1509 666L1510 667L1509 666M384 667L385 668L384 667M1508 667L1509 668L1508 667M1982 667L1983 668L1982 667M858 668L859 669L858 668M385 669L386 670L385 669M859 669L860 670L859 669M1507 669L1508 670L1507 669M860 671L861 672L860 671M1506 671L1507 672L1506 671M861 673L862 674L861 673M1505 673L1506 674L1505 673M388 674L389 675L388 674M1504 674L1505 675L1504 674z"/>
<path style="fill:#01ffff; stroke:none;" d="M1978 674L1979 675L1978 674z"/>
<path style="fill:#47b585; stroke:none;" d="M862 675L863 676L862 675z"/>
<path style="fill:#01ffff; stroke:none;" d="M389 676L390 677L389 676z"/>
<path style="fill:#47b585; stroke:none;" d="M863 676L864 677L863 676M1503 676L1504 677L1503 676M864 678L865 679L864 678M1502 678L1503 679L1502 678M1501.33 679.667L1501.67 680.333L1501.33 679.667M865 680L866 681L865 680M392 681L393 682L392 681M866 681L867 682L866 681M1500 681L1501 682L1500 681M867 683L868 684L867 683M1499 683L1500 684L1499 683M1972 684L1973 685L1972 684M868 685L869 686L868 685M1498 685L1499 686L1498 685M1497 686L1498 687L1497 686M869 687L870 688L869 687M870 688L871 689L870 688M1496 688L1497 689L1496 688M871 690L872 691L871 690M1495 690L1496 691L1495 690M872 692L873 693L872 692M1494 692L1495 693L1494 692M399 693L400 694L399 693M1493 693L1494 694L1493 693M1967 693L1968 694L1967 693M873 694L874 695L873 694M400 695L401 696L400 695M874 695L875 696L874 695M1492 695L1493 696L1492 695M875 697L876 698L875 697M1491 697L1492 698L1491 697M1964 698L1965 699L1964 698M876 699L877 700L876 699M1490 699L1491 700L1490 699M403 700L404 701L403 700M1489 700L1490 701L1489 700z"/>
<path style="fill:#01ffff; stroke:none;" d="M1963 700L1964 701L1963 700z"/>
<path style="fill:#47b585; stroke:none;" d="M877 701L878 702L877 701z"/>
<path style="fill:#01ffff; stroke:none;" d="M404 702L405 703L404 702z"/>
<path style="fill:#47b585; stroke:none;" d="M878 702L879 703L878 702M1488 702L1489 703L1488 702M879 704L880 705L879 704M1487 704L1488 705L1487 704M1486 705L1487 706L1486 705M1960 705L1961 706L1960 705M880 706L881 707L880 706M407 707L408 708L407 707M881 707L882 708L881 707M1485 707L1486 708L1485 707M882 709L883 710L882 709M1484 709L1485 710L1484 709M1957 710L1958 711L1957 710M883 711L884 712L883 711M1483 711L1484 712L1483 711M1482 712L1483 713L1482 712M884 713L885 714L884 713M411 714L412 715L411 714M885 714L886 715L885 714M1481 714L1482 715L1481 714M1954 715L1955 716L1954 715M886 716L887 717L886 716M1480 716L1481 717L1480 716M887 718L888 719L887 718M1479 718L1480 719L1479 718M414 719L415 720L414 719M1478 719L1479 720L1478 719M1952 719L1953 720L1952 719M888 720L889 721L888 720M415 721L416 722L415 721M889 721L890 722L889 721M1477 721L1478 722L1477 721M1950 722L1951 723L1950 722M890 723L891 724L890 723M1476 723L1477 724L1476 723M417 724L418 725L417 724M1949 724L1950 725L1949 724M891 725L892 726L891 725M1475 725L1476 726L1475 725M418 726L419 727L418 726M1474 726L1475 727L1474 726z"/>
<path style="fill:#01ffff; stroke:none;" d="M1948 726L1949 727L1948 726z"/>
<path style="fill:#47b585; stroke:none;" d="M892 727L893 728L892 727M893 728L894 729L893 728M1473 728L1474 729L1473 728M894 730L895 731L894 730M1472 730L1473 731L1472 730M1471 731L1472 732L1471 731M1945 731L1946 732L1945 731M895 732L896 733L895 732M422 733L423 734L422 733M896 733L897 734L896 733M1470 733L1471 734L1470 733M897 735L898 736L897 735M1469 735L1470 736L1469 735M898 737L899 738L898 737M1468 737L1469 738L1468 737M1467 738L1468 739L1467 738M899 739L900 740L899 739M426 740L427 741L426 740M900 740L901 741L900 740M1466 740L1467 741L1466 740M901 742L902 743L901 742M1465 742L1466 743L1465 742M1938 743L1939 744L1938 743M902 744L903 745L902 744M1464 744L1465 745L1464 744M1463 745L1464 746L1463 745M1937 745L1938 746L1937 745M903 746L904 747L903 746z"/>
<path style="fill:#01ffff; stroke:none;" d="M430 747L431 748L430 747z"/>
<path style="fill:#47b585; stroke:none;" d="M904 747L905 748L904 747M1462 747L1463 748L1462 747M905 749L906 750L905 749M1461 749L1462 750L1461 749M432 750L433 751L432 750M1934 750L1935 751L1934 750M906 751L907 752L906 751M1460 751L1461 752L1460 751M1459 752L1460 753L1459 752z"/>
<path style="fill:#01ffff; stroke:none;" d="M1933 752L1934 753L1933 752z"/>
<path style="fill:#47b585; stroke:none;" d="M908 754L909 755L908 754M1458 754L1459 755L1458 754M909 756L910 757L909 756M1457 756L1458 757L1457 756M1456 757L1457 758L1456 757M1930 757L1931 758L1930 757M910 758L911 759L910 758M911 759L912 760L911 759M1455 759L1456 760L1455 759M912 761L913 762L912 761M1454 761L1455 762L1454 761M913 763L914 764L913 763M1453 763L1454 764L1453 763M440 764L441 765L440 764M1452 764L1453 765L1452 764M914 765L915 766L914 765M441 766L442 767L441 766M915 766L916 767L915 766M1451 766L1452 767L1451 766M916 768L917 769L916 768M1450 768L1451 769L1450 768M1923 769L1924 770L1923 769M917 770L918 771L917 770M1449 770L1450 771L1449 770M444 771L445 772L444 771M1448 771L1449 772L1448 771M1922 771L1923 772L1922 771M918 772L919 773L918 772z"/>
<path style="fill:#01ffff; stroke:none;" d="M445 773L446 774L445 773z"/>
<path style="fill:#47b585; stroke:none;" d="M919 773L920 774L919 773M1447 773L1448 774L1447 773M920 775L921 776L920 775M1446 775L1447 776L1446 775M1445.33 776.667L1445.67 777.333L1445.33 776.667M921 777L922 778L921 777M448 778L449 779L448 778M922 778L923 779L922 778M1444 778L1445 779L1444 778M923 780L924 781L923 780M1443 780L1444 781L1443 780M924 782L925 783L924 782M1442 782L1443 783L1442 782M1441 783L1442 784L1441 783M925 784L926 785L925 784M926 785L927 786L926 785M1440 785L1441 786L1440 785M927 787L928 788L927 787M1439 787L1440 788L1439 787M928 789L929 790L928 789M1438 789L1439 790L1438 789M455 790L456 791L455 790M1437 790L1438 791L1437 790M1911 790L1912 791L1911 790M929 791L930 792L929 791M456 792L457 793L456 792M930 792L931 793L930 792M1436 792L1437 793L1436 792M931 794L932 795L931 794M1435 794L1436 795L1435 794M1908 795L1909 796L1908 795M932 796L933 797L932 796M1434 796L1435 797L1434 796M459 797L460 798L459 797M1433 797L1434 798L1433 797z"/>
<path style="fill:#01ffff; stroke:none;" d="M1907 797L1908 798L1907 797z"/>
<path style="fill:#47b585; stroke:none;" d="M933 798L934 799L933 798z"/>
<path style="fill:#01ffff; stroke:none;" d="M460 799L461 800L460 799z"/>
<path style="fill:#47b585; stroke:none;" d="M934 799L935 800L934 799M1432 799L1433 800L1432 799M935 801L936 802L935 801M1431 801L1432 802L1431 801M1430.33 802.667L1430.67 803.333L1430.33 802.667M936 803L937 804L936 803M463 804L464 805L463 804M937 804L938 805L937 804M1429 804L1430 805L1429 804M938 806L939 807L938 806M1428 806L1429 807L1428 806M1901 807L1902 808L1901 807M939 808L940 809L939 808M1427 808L1428 809L1427 808M1426 809L1427 810L1426 809M940 810L941 811L940 810M467 811L468 812L467 811M941 811L942 812L941 811M1425 811L1426 812L1425 811M1898 812L1899 813L1898 812M942 813L943 814L942 813M1424 813L1425 814L1424 813M943 815L944 816L943 815M1423 815L1424 816L1423 815M470 816L471 817L470 816M1422 816L1423 817L1422 816M1896 816L1897 817L1896 816M944 817L945 818L944 817M471 818L472 819L471 818M945 818L946 819L945 818M1421 818L1422 819L1421 818M1894 819L1895 820L1894 819M946 820L947 821L946 820M1420 820L1421 821L1420 820M1893 821L1894 822L1893 821M947 822L948 823L947 822M1419 822L1420 823L1419 822M474 823L475 824L474 823M1418 823L1419 824L1418 823z"/>
<path style="fill:#01ffff; stroke:none;" d="M1892 823L1893 824L1892 823z"/>
<path style="fill:#47b585; stroke:none;" d="M948 824L949 825L948 824M949 825L950 826L949 825M1417 825L1418 826L1417 825M950 827L951 828L950 827M1416 827L1417 828L1416 827M1415 828L1416 829L1415 828M1889 828L1890 829L1889 828M951 829L952 830L951 829M478 830L479 831L478 830M952 830L953 831L952 830M1414 830L1415 831L1414 830M953 832L954 833L953 832M1413 832L1414 833L1413 832M954 834L955 835L954 834M1412 834L1413 835L1412 834M1411 835L1412 836L1411 835M955 836L956 837L955 836M482 837L483 838L482 837M956 837L957 838L956 837M1410 837L1411 838L1410 837M957 839L958 840L957 839M1409 839L1410 840L1409 839M1882 840L1883 841L1882 840M958 841L959 842L958 841M1408 841L1409 842L1408 841M1407 842L1408 843L1407 842M1881 842L1882 843L1881 842M959 843L960 844L959 843z"/>
<path style="fill:#01ffff; stroke:none;" d="M486 844L487 845L486 844z"/>
<path style="fill:#47b585; stroke:none;" d="M960 844L961 845L960 844M1406 844L1407 845L1406 844M961 846L962 847L961 846M1405 846L1406 847L1405 846M488 847L489 848L488 847M1878 847L1879 848L1878 847M962 848L963 849L962 848M1404 848L1405 849L1404 848M1403 849L1404 850L1403 849z"/>
<path style="fill:#01ffff; stroke:none;" d="M1877 849L1878 850L1877 849z"/>
<path style="fill:#47b585; stroke:none;" d="M964 851L965 852L964 851M1402 851L1403 852L1402 851M965 853L966 854L965 853M1401 853L1402 854L1401 853M1400 854L1401 855L1400 854M1874 854L1875 855L1874 854M966 855L967 856L966 855M967 856L968 857L967 856M1399 856L1400 857L1399 856M968 858L969 859L968 858M1398 858L1399 859L1398 858M969 860L970 861L969 860M1397 860L1398 861L1397 860M1396 861L1397 862L1396 861M970 862L971 863L970 862M497 863L498 864L497 863M971 863L972 864L971 863M1395 863L1396 864L1395 863M972 865L973 866L972 865M1394 865L1395 866L1394 865M1867 866L1868 867L1867 866M973 867L974 868L973 867M1393 867L1394 868L1393 867M500 868L501 869L500 868M1392 868L1393 869L1392 868M1866 868L1867 869L1866 868M974 869L975 870L974 869z"/>
<path style="fill:#01ffff; stroke:none;" d="M501 870L502 871L501 870z"/>
<path style="fill:#47b585; stroke:none;" d="M975 870L976 871L975 870M1391 870L1392 871L1391 870M976 872L977 873L976 872M1390 872L1391 873L1390 872M1389.33 873.667L1389.67 874.333L1389.33 873.667M1863 873L1864 874L1863 873M977 874L978 875L977 874M504 875L505 876L504 875M978 875L979 876L978 875M1388 875L1389 876L1388 875z"/>
<path style="fill:#01ffff; stroke:none;" d="M1862 875L1863 876L1862 875z"/>
<path style="fill:#47b585; stroke:none;" d="M979 877L980 878L979 877M1387 877L1388 878L1387 877M980 879L981 880L980 879M1386 879L1387 880L1386 879M1385 880L1386 881L1385 880M981 881L982 882L981 881M982 882L983 883L982 882M1384 882L1385 883L1384 882M983 884L984 885L983 884M1383 884L1384 885L1383 884M984 886L985 887L984 886M1382 886L1383 887L1382 886M511 887L512 888L511 887M1381 887L1382 888L1381 887M1855 887L1856 888L1855 887M985 888L986 889L985 888M512 889L513 890L512 889M986 889L987 890L986 889M1380 889L1381 890L1380 889M987 891L988 892L987 891M1379 891L1380 892L1379 891M1852 892L1853 893L1852 892M988 893L989 894L988 893M1378 893L1379 894L1378 893M515 894L516 895L515 894M1377 894L1378 895L1377 894z"/>
<path style="fill:#01ffff; stroke:none;" d="M1851 894L1852 895L1851 894z"/>
<path style="fill:#47b585; stroke:none;" d="M989 895L990 896L989 895z"/>
<path style="fill:#01ffff; stroke:none;" d="M516 896L517 897L516 896z"/>
<path style="fill:#47b585; stroke:none;" d="M990 896L991 897L990 896M1376 896L1377 897L1376 896M991 898L992 899L991 898M1375 898L1376 899L1375 898M1374.33 899.667L1374.67 900.333L1374.33 899.667M992 900L993 901L992 900M519 901L520 902L519 901M993 901L994 902L993 901M1373 901L1374 902L1373 901M994 903L995 904L994 903M1372 903L1373 904L1372 903M1845 904L1846 905L1845 904M995 905L996 906L995 905M1371 905L1372 906L1371 905M1370 906L1371 907L1370 906M996 907L997 908L996 907M997 908L998 909L997 908M1369 908L1370 909L1369 908M1842 909L1843 910L1842 909M998 910L999 911L998 910M1368 910L1369 911L1368 910M999 912L1000 913L999 912M1367 912L1368 913L1367 912M526 913L527 914L526 913M1366 913L1367 914L1366 913M1840 913L1841 914L1840 913M1000 914L1001 915L1000 914M527 915L528 916L527 915M1001 915L1002 916L1001 915M1365 915L1366 916L1365 915M1838 916L1839 917L1838 916M1002 917L1003 918L1002 917M1364 917L1365 918L1364 917M1837 918L1838 919L1837 918M1003 919L1004 920L1003 919M1363 919L1364 920L1363 919M530 920L531 921L530 920M1362 920L1363 921L1362 920z"/>
<path style="fill:#01ffff; stroke:none;" d="M1836 920L1837 921L1836 920z"/>
<path style="fill:#47b585; stroke:none;" d="M1004 921L1005 922L1004 921M1005 922L1006 923L1005 922M1361 922L1362 923L1361 922M1006 924L1007 925L1006 924M1360 924L1361 925L1360 924M1359 925L1360 926L1359 925M1833 925L1834 926L1833 925M1007 926L1008 927L1007 926M534 927L535 928L534 927M1008 927L1009 928L1008 927M1358 927L1359 928L1358 927M1009 929L1010 930L1009 929M1357 929L1358 930L1357 929M1010 931L1011 932L1010 931M1356 931L1357 932L1356 931M1355 932L1356 933L1355 932M1011 933L1012 934L1011 933M538 934L539 935L538 934M1012 934L1013 935L1012 934M1354 934L1355 935L1354 934M1827 935L1828 936L1827 935M1013 936L1014 937L1013 936M1353 936L1354 937L1353 936M1014 938L1015 939L1014 938M1352 938L1353 939L1352 938M1351 939L1352 940L1351 939M1825 939L1826 940L1825 939M1015 940L1016 941L1015 940M542 941L543 942L542 941M1016 941L1017 942L1016 941M1350 941L1351 942L1350 941M1823 942L1824 943L1823 942M1017 943L1018 944L1017 943M1349 943L1350 944L1349 943M544 944L545 945L544 944M1822 944L1823 945L1822 944M1018 945L1019 946L1018 945M1348 945L1349 946L1348 945M545 946L546 947L545 946M1347 946L1348 947L1347 946z"/>
<path style="fill:#01ffff; stroke:none;" d="M1821 946L1822 947L1821 946z"/>
<path style="fill:#47b585; stroke:none;" d="M1020 948L1021 949L1020 948M1346 948L1347 949L1346 948M1021 950L1022 951L1021 950M1345 950L1346 951L1345 950M1344 951L1345 952L1344 951M1818 951L1819 952L1818 951M1022 952L1023 953L1022 952M1023 953L1024 954L1023 953M1343 953L1344 954L1343 953M1024 955L1025 956L1024 955M1342 955L1343 956L1342 955M1025 957L1026 958L1025 957M1341 957L1342 958L1341 957M1340 958L1341 959L1340 958M1026 959L1027 960L1026 959M553 960L554 961L553 960M1027 960L1028 961L1027 960M1339 960L1340 961L1339 960M1028 962L1029 963L1028 962M1338 962L1339 963L1338 962M1811 963L1812 964L1811 963M1029 964L1030 965L1029 964M1337 964L1338 965L1337 964M1336 965L1337 966L1336 965M1810 965L1811 966L1810 965M1030 966L1031 967L1030 966z"/>
<path style="fill:#01ffff; stroke:none;" d="M557 967L558 968L557 967z"/>
<path style="fill:#47b585; stroke:none;" d="M1031 967L1032 968L1031 967M1335 967L1336 968L1335 967M1032 969L1033 970L1032 969M1334 969L1335 970L1334 969M1333.33 970.667L1333.67 971.333L1333.33 970.667M1807 970L1808 971L1807 970M1033 971L1034 972L1033 971M560 972L561 973L560 972M1034 972L1035 973L1034 972M1332 972L1333 973L1332 972z"/>
<path style="fill:#01ffff; stroke:none;" d="M1806 972L1807 973L1806 972z"/>
<path style="fill:#47b585; stroke:none;" d="M1035 974L1036 975L1035 974M1331 974L1332 975L1331 974M1036 976L1037 977L1036 976M1330 976L1331 977L1330 976M1329 977L1330 978L1329 977M1803 977L1804 978L1803 977M1037 978L1038 979L1037 978M1038 979L1039 980L1038 979M1328 979L1329 980L1328 979M1039 981L1040 982L1039 981M1327 981L1328 982L1327 981M1040 983L1041 984L1040 983M1326 983L1327 984L1326 983M567 984L568 985L567 984M1325 984L1326 985L1325 984M1041 985L1042 986L1041 985M568 986L569 987L568 986M1042 986L1043 987L1042 986M1324 986L1325 987L1324 986M1043 988L1044 989L1043 988M1323 988L1324 989L1323 988M1044 990L1045 991L1044 990M1322 990L1323 991L1322 990M571 991L572 992L571 991M1321 991L1322 992L1321 991z"/>
<path style="fill:#01ffff; stroke:none;" d="M1795 991L1796 992L1795 991z"/>
<path style="fill:#47b585; stroke:none;" d="M1045 992L1046 993L1045 992z"/>
<path style="fill:#01ffff; stroke:none;" d="M572 993L573 994L572 993z"/>
<path style="fill:#47b585; stroke:none;" d="M1046 993L1047 994L1046 993M1320 993L1321 994L1320 993M1047 995L1048 996L1047 995M1319 995L1320 996L1319 995M1318.33 996.667L1318.67 997.333L1318.33 996.667M1048 997L1049 998L1048 997M575 998L576 999L575 998M1049 998L1050 999L1049 998M1317 998L1318 999L1317 998M1050 1000L1051 1001L1050 1000M1316 1000L1317 1001L1316 1000M1789 1001L1790 1002L1789 1001M1051 1002L1052 1003L1051 1002M1315 1002L1316 1003L1315 1002M1314 1003L1315 1004L1314 1003M1052 1004L1053 1005L1052 1004M1053 1005L1054 1006L1053 1005M1313 1005L1314 1006L1313 1005M1054 1007L1055 1008L1054 1007M1312 1007L1313 1008L1312 1007M1055 1009L1056 1010L1055 1009M1311 1009L1312 1010L1311 1009M582 1010L583 1011L582 1010M1310 1010L1311 1011L1310 1010M1784 1010L1785 1011L1784 1010M1056 1011L1057 1012L1056 1011M583 1012L584 1013L583 1012M1057 1012L1058 1013L1057 1012M1309 1012L1310 1013L1309 1012M1058 1014L1059 1015L1058 1014M1308 1014L1309 1015L1308 1014M1781 1015L1782 1016L1781 1015M1059 1016L1060 1017L1059 1016M1307 1016L1308 1017L1307 1016M586 1017L587 1018L586 1017M1306 1017L1307 1018L1306 1017z"/>
<path style="fill:#01ffff; stroke:none;" d="M1780 1017L1781 1018L1780 1017z"/>
<path style="fill:#47b585; stroke:none;" d="M1060 1018L1061 1019L1060 1018z"/>
<path style="fill:#01ffff; stroke:none;" d="M587 1019L588 1020L587 1019z"/>
<path style="fill:#47b585; stroke:none;" d="M1061 1019L1062 1020L1061 1019M1305 1019L1306 1020L1305 1019M1062 1021L1063 1022L1062 1021M1304 1021L1305 1022L1304 1021M1303 1022L1304 1023L1303 1022M1777 1022L1778 1023L1777 1022M1063 1023L1064 1024L1063 1023M590 1024L591 1025L590 1024M1064 1024L1065 1025L1064 1024M1302 1024L1303 1025L1302 1024M1065 1026L1066 1027L1065 1026M1301 1026L1302 1027L1301 1026M1774 1027L1775 1028L1774 1027M1066 1028L1067 1029L1066 1028M1300 1028L1301 1029L1300 1028M1299 1029L1300 1030L1299 1029M1067 1030L1068 1031L1067 1030M594 1031L595 1032L594 1031M1068 1031L1069 1032L1068 1031M1298 1031L1299 1032L1298 1031M1771 1032L1772 1033L1771 1032M1069 1033L1070 1034L1069 1033M1297 1033L1298 1034L1297 1033M1070 1035L1071 1036L1070 1035M1296 1035L1297 1036L1296 1035M597 1036L598 1037L597 1036M1295 1036L1296 1037L1295 1036M1769 1036L1770 1037L1769 1036M1071 1037L1072 1038L1071 1037M598 1038L599 1039L598 1038M1072 1038L1073 1039L1072 1038M1294 1038L1295 1039L1294 1038M1767 1039L1768 1040L1767 1039M1073 1040L1074 1041L1073 1040M1293 1040L1294 1041L1293 1040M600 1041L601 1042L600 1041M1766 1041L1767 1042L1766 1041M1074 1042L1075 1043L1074 1042M1292 1042L1293 1043L1292 1042M601 1043L602 1044L601 1043M1291 1043L1292 1044L1291 1043z"/>
<path style="fill:#01ffff; stroke:none;" d="M1765 1043L1766 1044L1765 1043z"/>
<path style="fill:#47b585; stroke:none;" d="M1076 1045L1077 1046L1076 1045M1290 1045L1291 1046L1290 1045M1077 1047L1078 1048L1077 1047M1289 1047L1290 1048L1289 1047M1288 1048L1289 1049L1288 1048M1762 1048L1763 1049L1762 1048M1078 1049L1079 1050L1078 1049M605 1050L606 1051L605 1050M1079 1050L1080 1051L1079 1050M1287 1050L1288 1051L1287 1050M1080 1052L1081 1053L1080 1052M1286 1052L1287 1053L1286 1052M1081 1054L1082 1055L1081 1054M1285 1054L1286 1055L1285 1054M1284 1055L1285 1056L1284 1055M1082 1056L1083 1057L1082 1056M609 1057L610 1058L609 1057M1083 1057L1084 1058L1083 1057M1283 1057L1284 1058L1283 1057M1084 1059L1085 1060L1084 1059M1282 1059L1283 1060L1282 1059M1755 1060L1756 1061L1755 1060M1085 1061L1086 1062L1085 1061M1281 1061L1282 1062L1281 1061M1280 1062L1281 1063L1280 1062M1754 1062L1755 1063L1754 1062M1086 1063L1087 1064L1086 1063z"/>
<path style="fill:#01ffff; stroke:none;" d="M613 1064L614 1065L613 1064z"/>
<path style="fill:#47b585; stroke:none;" d="M1087 1064L1088 1065L1087 1064M1279 1064L1280 1065L1279 1064M1088 1066L1089 1067L1088 1066M1278 1066L1279 1067L1278 1066M615 1067L616 1068L615 1067M1751 1067L1752 1068L1751 1067M1089 1068L1090 1069L1089 1068M1277 1068L1278 1069L1277 1068M1090 1069L1091 1070L1090 1069M1276 1069L1277 1070L1276 1069z"/>
<path style="fill:#01ffff; stroke:none;" d="M1750 1069L1751 1070L1750 1069z"/>
<path style="fill:#47b585; stroke:none;" d="M1091 1071L1092 1072L1091 1071M1275 1071L1276 1072L1275 1071M1092 1073L1093 1074L1092 1073M1274 1073L1275 1074L1274 1073M1273 1074L1274 1075L1273 1074M1747 1074L1748 1075L1747 1074M1093 1075L1094 1076L1093 1075M1094 1076L1095 1077L1094 1076M1272 1076L1273 1077L1272 1076M1095 1078L1096 1079L1095 1078M1271 1078L1272 1079L1271 1078M1096 1080L1097 1081L1096 1080M1270 1080L1271 1081L1270 1080M623 1081L624 1082L623 1081M1269 1081L1270 1082L1269 1081M1097 1082L1098 1083L1097 1082M624 1083L625 1084L624 1083M1098 1083L1099 1084L1098 1083M1268 1083L1269 1084L1268 1083M1099 1085L1100 1086L1099 1085M1267 1085L1268 1086L1267 1085M1740 1086L1741 1087L1740 1086M1100 1087L1101 1088L1100 1087M1266 1087L1267 1088L1266 1087M627 1088L628 1089L627 1088M1265 1088L1266 1089L1265 1088M1739 1088L1740 1089L1739 1088M1101 1089L1102 1090L1101 1089z"/>
<path style="fill:#01ffff; stroke:none;" d="M628 1090L629 1091L628 1090z"/>
<path style="fill:#47b585; stroke:none;" d="M1102 1090L1103 1091L1102 1090M1264 1090L1265 1091L1264 1090M1103 1092L1104 1093L1103 1092M1263 1092L1264 1093L1263 1092M1262.33 1093.67L1262.67 1094.33L1262.33 1093.67M1104 1094L1105 1095L1104 1094M631 1095L632 1096L631 1095M1105 1095L1106 1096L1105 1095M1261 1095L1262 1096L1261 1095M1106 1097L1107 1098L1106 1097M1260 1097L1261 1098L1260 1097M1107 1099L1108 1100L1107 1099M1259 1099L1260 1100L1259 1099M1258 1100L1259 1101L1258 1100M1108 1101L1109 1102L1108 1101M1109 1102L1110 1103L1109 1102M1257 1102L1258 1103L1257 1102M1110 1104L1111 1105L1110 1104M1256 1104L1257 1105L1256 1104M1111 1106L1112 1107L1111 1106M1255 1106L1256 1107L1255 1106M638 1107L639 1108L638 1107M1254 1107L1255 1108L1254 1107M1728 1107L1729 1108L1728 1107M1112 1108L1113 1109L1112 1108M639 1109L640 1110L639 1109M1113 1109L1114 1110L1113 1109M1253 1109L1254 1110L1253 1109M1114 1111L1115 1112L1114 1111M1252 1111L1253 1112L1252 1111M1725 1112L1726 1113L1725 1112M1115 1113L1116 1114L1115 1113M1251 1113L1252 1114L1251 1113M642 1114L643 1115L642 1114M1250 1114L1251 1115L1250 1114z"/>
<path style="fill:#01ffff; stroke:none;" d="M1724 1114L1725 1115L1724 1114z"/>
<path style="fill:#47b585; stroke:none;" d="M1116 1115L1117 1116L1116 1115z"/>
<path style="fill:#01ffff; stroke:none;" d="M643 1116L644 1117L643 1116z"/>
<path style="fill:#47b585; stroke:none;" d="M1117 1116L1118 1117L1117 1116M1249 1116L1250 1117L1249 1116M1118 1118L1119 1119L1118 1118M1248 1118L1249 1119L1248 1118M1247 1119L1248 1120L1247 1119M1119 1120L1120 1121L1119 1120M646 1121L647 1122L646 1121M1120 1121L1121 1122L1120 1121M1246 1121L1247 1122L1246 1121M1121 1123L1122 1124L1121 1123M1245 1123L1246 1124L1245 1123M1718 1124L1719 1125L1718 1124M1122 1125L1123 1126L1122 1125M1244 1125L1245 1126L1244 1125M1243 1126L1244 1127L1243 1126M1123 1127L1124 1128L1123 1127M650 1128L651 1129L650 1128M1124 1128L1125 1129L1124 1128M1242 1128L1243 1129L1242 1128M1715 1129L1716 1130L1715 1129M1125 1130L1126 1131L1125 1130M1241 1130L1242 1131L1241 1130M1126 1132L1127 1133L1126 1132M1240 1132L1241 1133L1240 1132M653 1133L654 1134L653 1133M1239 1133L1240 1134L1239 1133M1713 1133L1714 1134L1713 1133M1127 1134L1128 1135L1127 1134M654 1135L655 1136L654 1135M1128 1135L1129 1136L1128 1135M1238 1135L1239 1136L1238 1135M1711 1136L1712 1137L1711 1136M1129 1137L1130 1138L1129 1137M1237 1137L1238 1138L1237 1137M1710 1138L1711 1139L1710 1138M1130 1139L1131 1140L1130 1139M1236 1139L1237 1140L1236 1139M657 1140L658 1141L657 1140M1235 1140L1236 1141L1235 1140z"/>
<path style="fill:#01ffff; stroke:none;" d="M1709 1140L1710 1141L1709 1140z"/>
<path style="fill:#47b585; stroke:none;" d="M1132 1142L1133 1143L1132 1142M1234 1142L1235 1143L1234 1142M1133 1144L1134 1145L1133 1144M1233 1144L1234 1145L1233 1144M1232 1145L1233 1146L1232 1145M1706 1145L1707 1146L1706 1145M1134 1146L1135 1147L1134 1146M661 1147L662 1148L661 1147M1135 1147L1136 1148L1135 1147M1231 1147L1232 1148L1231 1147M1136 1149L1137 1150L1136 1149M1230 1149L1231 1150L1230 1149M1137 1151L1138 1152L1137 1151M1229 1151L1230 1152L1229 1151M1228 1152L1229 1153L1228 1152M1138 1153L1139 1154L1138 1153M665 1154L666 1155L665 1154M1139 1154L1140 1155L1139 1154M1227 1154L1228 1155L1227 1154M1140 1156L1141 1157L1140 1156M1226 1156L1227 1157L1226 1156M1699 1157L1700 1158L1699 1157M1141 1158L1142 1159L1141 1158M1225 1158L1226 1159L1225 1158M1224 1159L1225 1160L1224 1159M1698 1159L1699 1160L1698 1159M1142 1160L1143 1161L1142 1160z"/>
<path style="fill:#01ffff; stroke:none;" d="M669 1161L670 1162L669 1161z"/>
<path style="fill:#47b585; stroke:none;" d="M1143 1161L1144 1162L1143 1161M1223 1161L1224 1162L1223 1161M1144 1163L1145 1164L1144 1163M1222 1163L1223 1164L1222 1163M671 1164L672 1165L671 1164M1695 1164L1696 1165L1695 1164M1145 1165L1146 1166L1145 1165M1221 1165L1222 1166L1221 1165M1220 1166L1221 1167L1220 1166z"/>
<path style="fill:#01ffff; stroke:none;" d="M1694 1166L1695 1167L1694 1166z"/>
<path style="fill:#47b585; stroke:none;" d="M1147 1168L1148 1169L1147 1168M1219 1168L1220 1169L1219 1168M1148 1170L1149 1171L1148 1170M1218 1170L1219 1171L1218 1170M1217 1171L1218 1172L1217 1171M1691 1171L1692 1172L1691 1171M1149 1172L1150 1173L1149 1172M1150 1173L1151 1174L1150 1173M1216 1173L1217 1174L1216 1173M1151 1175L1152 1176L1151 1175M1215 1175L1216 1176L1215 1175M1152 1177L1153 1178L1152 1177M1214 1177L1215 1178L1214 1177M1213 1178L1214 1179L1213 1178M1153 1179L1154 1180L1153 1179M680 1180L681 1181L680 1180M1154 1180L1155 1181L1154 1180M1212 1180L1213 1181L1212 1180M1155 1182L1156 1183L1155 1182M1211 1182L1212 1183L1211 1182M1684 1183L1685 1184L1684 1183M1156 1184L1157 1185L1156 1184M1210 1184L1211 1185L1210 1184M683 1185L684 1186L683 1185M1209 1185L1210 1186L1209 1185M1683 1185L1684 1186L1683 1185M1157 1186L1158 1187L1157 1186z"/>
<path style="fill:#01ffff; stroke:none;" d="M684 1187L685 1188L684 1187z"/>
<path style="fill:#47b585; stroke:none;" d="M1158 1187L1159 1188L1158 1187M1208 1187L1209 1188L1208 1187M1159 1189L1160 1190L1159 1189M1207 1189L1208 1190L1207 1189M1206.33 1190.67L1206.67 1191.33L1206.33 1190.67M1680 1190L1681 1191L1680 1190M1160 1191L1161 1192L1160 1191M687 1192L688 1193L687 1192M1161 1192L1162 1193L1161 1192M1205 1192L1206 1193L1205 1192z"/>
<path style="fill:#01ffff; stroke:none;" d="M1679 1192L1680 1193L1679 1192z"/>
<path style="fill:#47b585; stroke:none;" d="M1162 1194L1163 1195L1162 1194M1204 1194L1205 1195L1204 1194M1163 1196L1164 1197L1163 1196M1203 1196L1204 1197L1203 1196M1202 1197L1203 1198L1202 1197M1164 1198L1165 1199L1164 1198M1165 1199L1166 1200L1165 1199M1201 1199L1202 1200L1201 1199M1166 1201L1167 1202L1166 1201M1200 1201L1201 1202L1200 1201M1167 1203L1168 1204L1167 1203M1199 1203L1200 1204L1199 1203M694 1204L695 1205L694 1204M1198 1204L1199 1205L1198 1204M1672 1204L1673 1205L1672 1204M1168 1205L1169 1206L1168 1205M695 1206L696 1207L695 1206M1169 1206L1170 1207L1169 1206M1197 1206L1198 1207L1197 1206M1170 1208L1171 1209L1170 1208M1196 1208L1197 1209L1196 1208M1669 1209L1670 1210L1669 1209M1171 1210L1172 1211L1171 1210M1195 1210L1196 1211L1195 1210M698 1211L699 1212L698 1211M1194 1211L1195 1212L1194 1211z"/>
<path style="fill:#01ffff; stroke:none;" d="M1668 1211L1669 1212L1668 1211z"/>
<path style="fill:#47b585; stroke:none;" d="M1172 1212L1173 1213L1172 1212z"/>
<path style="fill:#01ffff; stroke:none;" d="M699 1213L700 1214L699 1213z"/>
<path style="fill:#47b585; stroke:none;" d="M1173 1213L1174 1214L1173 1213M1193 1213L1194 1214L1193 1213M1174 1215L1175 1216L1174 1215M1192 1215L1193 1216L1192 1215M1191 1216L1192 1217L1191 1216M1175 1217L1176 1218L1175 1217M702 1218L703 1219L702 1218M1176 1218L1177 1219L1176 1218M1190 1218L1191 1219L1190 1218M1177 1220L1178 1221L1177 1220M1189 1220L1190 1221L1189 1220M1662 1221L1663 1222L1662 1221M1178 1222L1179 1223L1178 1222M1188 1222L1189 1223L1188 1222M1187 1223L1188 1224L1187 1223M1179 1224L1180 1225L1179 1224M1180 1225L1181 1226L1180 1225M1186 1225L1187 1226L1186 1225M1659 1226L1660 1227L1659 1226M1181 1227L1182 1228L1181 1227M1185 1227L1186 1228L1185 1227M1182 1229L1183 1230L1182 1229M1184 1229L1185 1230L1184 1229M709 1230L710 1231L709 1230M1183 1230L1184 1231L1183 1230M1657 1230L1658 1231L1657 1230M710 1232L711 1233L710 1232M1654 1235L1655 1236L1654 1235M713 1237L714 1238L713 1237z"/>
<path style="fill:#01ffff; stroke:none;" d="M1653 1237L1654 1238L1653 1237z"/>
<path style="fill:#47b585; stroke:none;" d="M1650 1242L1651 1243L1650 1242M717 1244L718 1245L717 1244M1647 1247L1648 1248L1647 1247M721 1251L722 1252L721 1251M1644 1252L1645 1253L1644 1252M1642 1256L1643 1257L1642 1256M725 1258L726 1259L725 1258M1640 1259L1641 1260L1640 1259M727 1261L728 1262L727 1261M1639 1261L1640 1262L1639 1261M728 1263L729 1264L728 1263z"/>
<path style="fill:#01ffff; stroke:none;" d="M1638 1263L1639 1264L1638 1263z"/>
<path style="fill:#47b585; stroke:none;" d="M1635 1268L1636 1269L1635 1268M736 1277L737 1278L736 1277M1628 1280L1629 1281L1628 1280M1627 1282L1628 1283L1627 1282z"/>
<path style="fill:#01ffff; stroke:none;" d="M740 1284L741 1285L740 1284z"/>
<path style="fill:#47b585; stroke:none;" d="M1624 1287L1625 1288L1624 1287M743 1289L744 1290L743 1289z"/>
<path style="fill:#01ffff; stroke:none;" d="M1623 1289L1624 1290L1623 1289z"/>
<path style="fill:#47b585; stroke:none;" d="M1620 1294L1621 1295L1620 1294M750 1301L751 1302L750 1301M751 1303L752 1304L751 1303M754 1308L755 1309L754 1308z"/>
<path style="fill:#01ffff; stroke:none;" d="M1612 1308L1613 1309L1612 1308M755 1310L756 1311L755 1310z"/>
<path style="fill:#47b585; stroke:none;" d="M758 1315L759 1316L758 1315M1606 1318L1607 1319L1606 1318M765 1327L766 1328L765 1327M1601 1327L1602 1328L1601 1327M766 1329L767 1330L766 1329M1598 1332L1599 1333L1598 1332M769 1334L770 1335L769 1334z"/>
<path style="fill:#01ffff; stroke:none;" d="M1597 1334L1598 1335L1597 1334M770 1336L771 1337L770 1336z"/>
<path style="fill:#47b585; stroke:none;" d="M1594 1339L1595 1340L1594 1339M773 1341L774 1342L773 1341M1591 1344L1592 1345L1591 1344M777 1348L778 1349L777 1348M1588 1349L1589 1350L1588 1349M780 1353L781 1354L780 1353M1586 1353L1587 1354L1586 1353M781 1355L782 1356L781 1355M1584 1356L1585 1357L1584 1356M783 1358L784 1359L783 1358M1583 1358L1584 1359L1583 1358M784 1360L785 1361L784 1360z"/>
<path style="fill:#01ffff; stroke:none;" d="M1582 1360L1583 1361L1582 1360z"/>
<path style="fill:#47b585; stroke:none;" d="M1579 1365L1580 1366L1579 1365M788 1367L789 1368L788 1367M792 1374L793 1375L792 1374M1572 1377L1573 1378L1572 1377M1571 1379L1572 1380L1571 1379z"/>
<path style="fill:#01ffff; stroke:none;" d="M796 1381L797 1382L796 1381z"/>
<path style="fill:#47b585; stroke:none;" d="M798 1384L799 1385L798 1384M1568 1384L1569 1385L1568 1384z"/>
<path style="fill:#01ffff; stroke:none;" d="M1567 1386L1568 1387L1567 1386z"/>
<path style="fill:#47b585; stroke:none;" d="M1564 1391L1565 1392L1564 1391M806 1398L807 1399L806 1398M807 1400L808 1401L807 1400M1557 1403L1558 1404L1557 1403M810 1405L811 1406L810 1405M1556 1405L1557 1406L1556 1405z"/>
<path style="fill:#01ffff; stroke:none;" d="M811 1407L812 1408L811 1407z"/>
<path style="fill:#47b585; stroke:none;" d="M814 1412L815 1413L814 1412M821 1424L822 1425L821 1424M1545 1424L1546 1425L1545 1424M822 1426L823 1427L822 1426M1542 1429L1543 1430L1542 1429M825 1431L826 1432L825 1431z"/>
<path style="fill:#01ffff; stroke:none;" d="M1541 1431L1542 1432L1541 1431M826 1433L827 1434L826 1433z"/>
<path style="fill:#47b585; stroke:none;" d="M829 1438L830 1439L829 1438M1535 1441L1536 1442L1535 1441M833 1445L834 1446L833 1445M1532 1446L1533 1447L1532 1446M836 1450L837 1451L836 1450M1530 1450L1531 1451L1530 1450M837 1452L838 1453L837 1452M1528 1453L1529 1454L1528 1453M1527 1455L1528 1456L1527 1455M840 1457L841 1458L840 1457z"/>
<path style="fill:#01ffff; stroke:none;" d="M1526 1457L1527 1458L1526 1457z"/>
<path style="fill:#47b585; stroke:none;" d="M1523 1462L1524 1463L1523 1462M844 1464L845 1465L844 1464M848 1471L849 1472L848 1471M1516 1474L1517 1475L1516 1474M1515 1476L1516 1477L1515 1476z"/>
<path style="fill:#01ffff; stroke:none;" d="M852 1478L853 1479L852 1478z"/>
<path style="fill:#47b585; stroke:none;" d="M854 1481L855 1482L854 1481M1512 1481L1513 1482L1512 1481z"/>
<path style="fill:#01ffff; stroke:none;" d="M1511 1483L1512 1484L1511 1483z"/>
<path style="fill:#47b585; stroke:none;" d="M1508 1488L1509 1489L1508 1488M863 1497L864 1498L863 1497M1501 1500L1502 1501L1501 1500M866 1502L867 1503L866 1502M1500 1502L1501 1503L1500 1502z"/>
<path style="fill:#01ffff; stroke:none;" d="M867 1504L868 1505L867 1504z"/>
<path style="fill:#47b585; stroke:none;" d="M1497 1507L1498 1508L1497 1507M870 1509L871 1510L870 1509z"/>
<path style="fill:#01ffff; stroke:none;" d="M1496 1509L1497 1510L1496 1509z"/>
<path style="fill:#47b585; stroke:none;" d="M877 1521L878 1522L877 1521M1489 1521L1490 1522L1489 1521M878 1523L879 1524L878 1523M1486 1526L1487 1527L1486 1526M881 1528L882 1529L881 1528z"/>
<path style="fill:#01ffff; stroke:none;" d="M1485 1528L1486 1529L1485 1528M882 1530L883 1531L882 1530z"/>
<path style="fill:#47b585; stroke:none;" d="M885 1535L886 1536L885 1535M1479 1538L1480 1539L1479 1538M1476 1543L1477 1544L1476 1543M892 1547L893 1548L892 1547M1474 1547L1475 1548L1474 1547M893 1549L894 1550L893 1549M1471 1552L1472 1553L1471 1552M896 1554L897 1555L896 1554z"/>
<path style="fill:#01ffff; stroke:none;" d="M1470 1554L1471 1555L1470 1554z"/>
<path style="fill:#47b585; stroke:none;" d="M1467 1559L1468 1560L1467 1559M900 1561L901 1562L900 1561M1464 1564L1465 1565L1464 1564M904 1568L905 1569L904 1568M1461 1569L1462 1570L1461 1569M907 1573L908 1574L907 1573M1459 1573L1460 1574L1459 1573M908 1575L909 1576L908 1575M1457 1576L1458 1577L1457 1576M910 1578L911 1579L910 1578M1456 1578L1457 1579L1456 1578M911 1580L912 1581L911 1580z"/>
<path style="fill:#01ffff; stroke:none;" d="M1455 1580L1456 1581L1455 1580z"/>
<path style="fill:#47b585; stroke:none;" d="M1452 1585L1453 1586L1452 1585M915 1587L916 1588L915 1587M919 1594L920 1595L919 1594M1445 1597L1446 1598L1445 1597M1444 1599L1445 1600L1444 1599z"/>
<path style="fill:#01ffff; stroke:none;" d="M923 1601L924 1602L923 1601z"/>
<path style="fill:#47b585; stroke:none;" d="M925 1604L926 1605L925 1604M1441 1604L1442 1605L1441 1604M926 1606L927 1607L926 1606z"/>
<path style="fill:#01ffff; stroke:none;" d="M1440 1606L1441 1607L1440 1606z"/>
<path style="fill:#47b585; stroke:none;" d="M1437 1611L1438 1612L1437 1611M933 1618L934 1619L933 1618M934 1620L935 1621L934 1620M937 1625L938 1626L937 1625z"/>
<path style="fill:#01ffff; stroke:none;" d="M1429 1625L1430 1626L1429 1625M938 1627L939 1628L938 1627z"/>
<path style="fill:#47b585; stroke:none;" d="M941 1632L942 1633L941 1632M1423 1635L1424 1636L1423 1635M948 1644L949 1645L948 1644M1418 1644L1419 1645L1418 1644M949 1646L950 1647L949 1646M1415 1649L1416 1650L1415 1649M952 1651L953 1652L952 1651z"/>
<path style="fill:#01ffff; stroke:none;" d="M1414 1651L1415 1652L1414 1651M953 1653L954 1654L953 1653z"/>
<path style="fill:#47b585; stroke:none;" d="M1411 1656L1412 1657L1411 1656M956 1658L957 1659L956 1658M1408 1661L1409 1662L1408 1661M960 1665L961 1666L960 1665M1405 1666L1406 1667L1405 1666M963 1670L964 1671L963 1670M1403 1670L1404 1671L1403 1670M964 1672L965 1673L964 1672M1401 1673L1402 1674L1401 1673M966 1675L967 1676L966 1675M1400 1675L1401 1676L1400 1675M967 1677L968 1678L967 1677z"/>
<path style="fill:#01ffff; stroke:none;" d="M1399 1677L1400 1678L1399 1677z"/>
<path style="fill:#47b585; stroke:none;" d="M1396 1682L1397 1683L1396 1682M971 1684L972 1685L971 1684M975 1691L976 1692L975 1691M1389 1694L1390 1695L1389 1694M1388 1696L1389 1697L1388 1696z"/>
<path style="fill:#01ffff; stroke:none;" d="M979 1698L980 1699L979 1698z"/>
<path style="fill:#47b585; stroke:none;" d="M981 1701L982 1702L981 1701M1385 1701L1386 1702L1385 1701z"/>
<path style="fill:#01ffff; stroke:none;" d="M1384 1703L1385 1704L1384 1703z"/>
<path style="fill:#47b585; stroke:none;" d="M1381 1708L1382 1709L1381 1708M989 1715L990 1716L989 1715M990 1717L991 1718L990 1717M1374 1720L1375 1721L1374 1720M993 1722L994 1723L993 1722M1373 1722L1374 1723L1373 1722z"/>
<path style="fill:#01ffff; stroke:none;" d="M994 1724L995 1725L994 1724z"/>
<path style="fill:#47b585; stroke:none;" d="M997 1729L998 1730L997 1729M1004 1741L1005 1742L1004 1741M1362 1741L1363 1742L1362 1741M1005 1743L1006 1744L1005 1743M1359 1746L1360 1747L1359 1746M1008 1748L1009 1749L1008 1748z"/>
<path style="fill:#01ffff; stroke:none;" d="M1358 1748L1359 1749L1358 1748M1009 1750L1010 1751L1009 1750z"/>
<path style="fill:#47b585; stroke:none;" d="M1012 1755L1013 1756L1012 1755M1352 1758L1353 1759L1352 1758M1016 1762L1017 1763L1016 1762M1349 1763L1350 1764L1349 1763M1019 1767L1020 1768L1019 1767M1347 1767L1348 1768L1347 1767M1020 1769L1021 1770L1020 1769M1345 1770L1346 1771L1345 1770M1344 1772L1345 1773L1344 1772M1023 1774L1024 1775L1023 1774z"/>
<path style="fill:#01ffff; stroke:none;" d="M1343 1774L1344 1775L1343 1774z"/>
<path style="fill:#47b585; stroke:none;" d="M1340 1779L1341 1780L1340 1779M1027 1781L1028 1782L1027 1781M1031 1788L1032 1789L1031 1788M1333 1791L1334 1792L1333 1791M1332 1793L1333 1794L1332 1793z"/>
<path style="fill:#01ffff; stroke:none;" d="M1035 1795L1036 1796L1035 1795z"/>
<path style="fill:#47b585; stroke:none;" d="M1037 1798L1038 1799L1037 1798M1329 1798L1330 1799L1329 1798z"/>
<path style="fill:#01ffff; stroke:none;" d="M1328 1800L1329 1801L1328 1800z"/>
<path style="fill:#47b585; stroke:none;" d="M1325 1805L1326 1806L1325 1805M1046 1814L1047 1815L1046 1814M1318 1817L1319 1818L1318 1817M1049 1819L1050 1820L1049 1819M1317 1819L1318 1820L1317 1819z"/>
<path style="fill:#01ffff; stroke:none;" d="M1050 1821L1051 1822L1050 1821z"/>
<path style="fill:#47b585; stroke:none;" d="M1314 1824L1315 1825L1314 1824M1053 1826L1054 1827L1053 1826z"/>
<path style="fill:#01ffff; stroke:none;" d="M1313 1826L1314 1827L1313 1826z"/>
<path style="fill:#47b585; stroke:none;" d="M1310 1831L1311 1832L1310 1831M1060 1838L1061 1839L1060 1838M1306 1838L1307 1839L1306 1838M1061 1840L1062 1841L1061 1840M1303 1843L1304 1844L1303 1843M1064 1845L1065 1846L1064 1845z"/>
<path style="fill:#01ffff; stroke:none;" d="M1302 1845L1303 1846L1302 1845M1065 1847L1066 1848L1065 1847z"/>
<path style="fill:#47b585; stroke:none;" d="M1068 1852L1069 1853L1068 1852M1296 1855L1297 1856L1296 1855M1293 1860L1294 1861L1293 1860M1075 1864L1076 1865L1075 1864M1291 1864L1292 1865L1291 1864M1076 1866L1077 1867L1076 1866M1288 1869L1289 1870L1288 1869M1079 1871L1080 1872L1079 1871z"/>
<path style="fill:#01ffff; stroke:none;" d="M1287 1871L1288 1872L1287 1871z"/>
<path style="fill:#47b585; stroke:none;" d="M1284 1876L1285 1877L1284 1876M1083 1878L1084 1879L1083 1878M1281 1881L1282 1882L1281 1881M1087 1885L1088 1886L1087 1885M1278 1886L1279 1887L1278 1886M1090 1890L1091 1891L1090 1890M1276 1890L1277 1891L1276 1890M1091 1892L1092 1893L1091 1892M1274 1893L1275 1894L1274 1893M1093 1895L1094 1896L1093 1895M1273 1895L1274 1896L1273 1895M1094 1897L1095 1898L1094 1897z"/>
<path style="fill:#01ffff; stroke:none;" d="M1272 1897L1273 1898L1272 1897z"/>
<path style="fill:#47b585; stroke:none;" d="M1269 1902L1270 1903L1269 1902M1098 1904L1099 1905L1098 1904M1102 1911L1103 1912L1102 1911M1262 1914L1263 1915L1262 1914M1261 1916L1262 1917L1261 1916z"/>
<path style="fill:#01ffff; stroke:none;" d="M1106 1918L1107 1919L1106 1918z"/>
<path style="fill:#47b585; stroke:none;" d="M1108 1921L1109 1922L1108 1921M1258 1921L1259 1922L1258 1921M1109 1923L1110 1924L1109 1923z"/>
<path style="fill:#01ffff; stroke:none;" d="M1257 1923L1258 1924L1257 1923z"/>
<path style="fill:#47b585; stroke:none;" d="M1254 1928L1255 1929L1254 1928M1116 1935L1117 1936L1116 1935M1117 1937L1118 1938L1117 1937M1120 1942L1121 1943L1120 1942z"/>
<path style="fill:#01ffff; stroke:none;" d="M1246 1942L1247 1943L1246 1942M1121 1944L1122 1945L1121 1944z"/>
<path style="fill:#47b585; stroke:none;" d="M1124 1949L1125 1950L1124 1949M1240 1952L1241 1953L1240 1952M1131 1961L1132 1962L1131 1961M1235 1961L1236 1962L1235 1961M1132 1963L1133 1964L1132 1963M1232 1966L1233 1967L1232 1966M1135 1968L1136 1969L1135 1968z"/>
<path style="fill:#01ffff; stroke:none;" d="M1231 1968L1232 1969L1231 1968M1136 1970L1137 1971L1136 1970z"/>
<path style="fill:#47b585; stroke:none;" d="M1228 1973L1229 1974L1228 1973M1139 1975L1140 1976L1139 1975M1225 1978L1226 1979L1225 1978M1143 1982L1144 1983L1143 1982M1222 1983L1223 1984L1222 1983M1146 1987L1147 1988L1146 1987M1220 1987L1221 1988L1220 1987M1147 1989L1148 1990L1147 1989M1218 1990L1219 1991L1218 1990M1149 1992L1150 1993L1149 1992M1217 1992L1218 1993L1217 1992M1150 1994L1151 1995L1150 1994z"/>
<path style="fill:#01ffff; stroke:none;" d="M1216 1994L1217 1995L1216 1994z"/>
<path style="fill:#47b585; stroke:none;" d="M1213 1999L1214 2000L1213 1999M1154 2001L1155 2002L1154 2001M1158 2008L1159 2009L1158 2008M1206 2011L1207 2012L1206 2011M1205 2013L1206 2014L1205 2013z"/>
<path style="fill:#01ffff; stroke:none;" d="M1162 2015L1163 2016L1162 2015z"/>
<path style="fill:#47b585; stroke:none;" d="M1164 2018L1165 2019L1164 2018M1202 2018L1203 2019L1202 2018z"/>
<path style="fill:#01ffff; stroke:none;" d="M1201 2020L1202 2021L1201 2020z"/>
<path style="fill:#47b585; stroke:none;" d="M1198 2025L1199 2026L1198 2025M1172 2032L1173 2033L1172 2032M1173 2034L1174 2035L1173 2034M1191 2037L1192 2038L1191 2037M1176 2039L1177 2040L1176 2039M1190 2039L1191 2040L1190 2039z"/>
<path style="fill:#01ffff; stroke:none;" d="M1177 2041L1178 2042L1177 2041z"/>
<path style="fill:#47b585; stroke:none;" d="M1180 2046L1181 2047L1180 2046z"/>
</svg>
